# Blender v3.0.1 OBJ File: 'adream_empty.blend'
# www.blender.org
mtllib window_h100_3.mtl
o glass_wall_h20_2.014_Cube.391
v 1.462197 1.023982 4.875071
v 1.462197 0.946470 4.875071
v 1.574053 0.946470 4.875071
v 1.574053 1.023982 4.875071
v 1.462197 1.023982 4.954912
v 1.574053 1.023982 4.954912
v 1.574053 0.946470 4.954912
v 1.462197 0.946470 4.954912
v 1.462197 1.023982 6.016829
v 1.462197 0.946470 6.016829
v 1.574053 0.946470 6.016829
v 1.574053 1.023982 6.016829
v 1.462197 1.023982 6.111186
v 1.574053 1.023982 6.111186
v 1.574053 0.946470 6.111186
v 1.462197 0.946470 6.111186
v 1.574053 2.927303 6.016829
v 1.574053 2.927303 6.111299
v 1.462197 2.927303 6.111299
v 1.462197 2.927303 6.016829
v 1.574053 2.927303 4.875071
v 1.574053 2.927303 4.954912
v 1.462197 2.927303 4.954912
v 1.462197 2.927303 4.875071
v 1.574053 2.998614 4.875071
v 1.462197 2.998614 4.875071
v 1.462197 2.998614 4.954912
v 1.574053 2.998614 4.954912
v 1.574053 2.998614 6.016829
v 1.462197 2.998614 6.016829
v 1.462197 2.998614 6.111299
v 1.574053 2.998614 6.111299
v 1.462196 4.898032 6.111186
v 1.574051 4.898032 6.111186
v 1.574052 4.967869 6.111242
v 1.462196 4.967869 6.111242
v 1.574052 4.967869 6.016829
v 1.574051 4.898032 6.016829
v 1.462196 4.898032 6.016829
v 1.462196 4.967869 6.016829
v 1.462196 4.898032 4.954912
v 1.574051 4.898032 4.954912
v 1.574052 4.967869 4.954912
v 1.462196 4.967869 4.954912
v 1.574052 4.967869 4.875071
v 1.574051 4.898032 4.875071
v 1.462196 4.898032 4.875071
v 1.462196 4.967869 4.875071
v 1.462196 4.898032 3.973593
v 1.462196 4.967869 3.973593
v 1.574051 4.898032 3.973593
v 1.574052 4.967869 3.973593
v 1.574053 2.927303 3.973593
v 1.574053 2.998614 3.973593
v 1.462197 2.998614 3.973593
v 1.462197 2.927303 3.973593
v 1.462197 1.023982 3.973593
v 1.574053 1.023982 3.973593
v 1.574053 0.946470 3.973593
v 1.462197 0.946470 3.973593
v 1.462197 1.023982 3.891640
v 1.462197 0.946470 3.891640
v 1.574053 0.946470 3.891640
v 1.574053 1.023982 3.891640
v 1.574053 2.927303 3.891640
v 1.462197 2.927303 3.891640
v 1.462197 2.998614 3.891640
v 1.574053 2.998614 3.891640
v 1.462196 4.967869 3.891640
v 1.574052 4.967869 3.891640
v 1.574051 4.898032 3.891640
v 1.462196 4.898032 3.891640
v 1.462196 6.868020 6.111186
v 1.574051 6.868020 6.111186
v 1.574052 6.945399 6.111215
v 1.462196 6.945399 6.111215
v 1.574052 6.945399 6.016829
v 1.574051 6.868020 6.016829
v 1.462196 6.868020 6.016829
v 1.462196 6.945399 6.016829
v 1.462196 6.868020 4.954912
v 1.574051 6.868020 4.954912
v 1.574052 6.945399 4.954912
v 1.462196 6.945399 4.954912
v 1.574052 6.945399 4.875071
v 1.574051 6.868020 4.875071
v 1.462196 6.868020 4.875071
v 1.462196 6.945399 4.875071
v 1.462196 6.868020 3.973593
v 1.462196 6.945399 3.973593
v 1.574051 6.868020 3.973593
v 1.574052 6.945399 3.973593
v 1.462196 6.945399 3.891640
v 1.574052 6.945399 3.891640
v 1.574051 6.868020 3.891640
v 1.462196 6.868020 3.891640
v 1.462196 8.845699 6.111186
v 1.574052 8.845699 6.111186
v 1.574052 8.923935 6.111186
v 1.462196 8.923935 6.111186
v 1.574052 8.923935 6.016829
v 1.574052 8.845699 6.016829
v 1.462196 8.845699 6.016829
v 1.462196 8.923935 6.016829
v 1.462196 8.845699 4.954912
v 1.574052 8.845699 4.954912
v 1.574052 8.923935 4.954912
v 1.462196 8.923935 4.954912
v 1.574052 8.923935 4.875071
v 1.574052 8.845699 4.875071
v 1.462196 8.845699 4.875071
v 1.462196 8.923935 4.875071
v 1.462196 8.845699 3.973593
v 1.462196 8.923935 3.973593
v 1.574052 8.845699 3.973593
v 1.574052 8.923935 3.973593
v 1.462196 8.923935 3.891640
v 1.574052 8.923935 3.891640
v 1.574052 8.845699 3.891640
v 1.462196 8.845699 3.891640
vn 1.0000 0.0000 0.0000
vn 0.0000 -1.0000 0.0000
vn -1.0000 0.0000 0.0000
vn 0.0000 1.0000 0.0000
vn 0.0000 -0.0001 1.0000
vn 0.0000 0.0000 -1.0000
vn 0.0000 0.0000 1.0000
vn 0.0000 -0.0008 1.0000
vn 0.0000 0.0001 1.0000
vn 0.0000 -0.0004 1.0000
usemtl M_glass_frame_black_glossy
s off
f 3//1 4//1 6//1 7//1
f 2//2 3//2 7//2 8//2
f 1//3 2//3 8//3 5//3
f 5//3 8//3 10//3 9//3
f 8//2 7//2 11//2 10//2
f 7//1 6//1 12//1 11//1
f 6//4 5//4 9//4 12//4
f 11//1 12//1 14//1 15//1
f 10//2 11//2 15//2 16//2
f 9//3 10//3 16//3 13//3
f 14//1 12//1 17//1 18//1
f 13//5 14//5 18//5 19//5
f 9//3 13//3 19//3 20//3
f 12//6 9//6 20//6 17//6
f 6//1 4//1 21//1 22//1
f 5//7 6//7 22//7 23//7
f 1//3 5//3 23//3 24//3
f 4//6 1//6 24//6 21//6
f 24//3 23//3 27//3 26//3
f 22//1 21//1 25//1 28//1
f 20//3 19//3 31//3 30//3
f 18//1 17//1 29//1 32//1
f 29//1 17//1 22//1 28//1
f 30//4 29//4 28//4 27//4
f 20//3 30//3 27//3 23//3
f 17//2 20//2 23//2 22//2
f 40//3 39//3 33//3 36//3
f 38//1 37//1 35//1 34//1
f 43//4 44//4 40//4 37//4
f 42//1 43//1 37//1 38//1
f 41//2 42//2 38//2 39//2
f 44//3 41//3 39//3 40//3
f 48//3 47//3 41//3 44//3
f 46//1 45//1 43//1 42//1
f 36//8 33//8 34//8 35//8
f 18//7 32//7 31//7 19//7
f 32//1 29//1 38//1 34//1
f 31//9 32//9 34//9 33//9
f 30//3 31//3 33//3 39//3
f 29//6 30//6 39//6 38//6
f 13//7 16//7 15//7 14//7
f 28//1 25//1 46//1 42//1
f 27//7 28//7 42//7 41//7
f 26//3 27//3 41//3 47//3
f 25//6 26//6 47//6 46//6
f 47//3 48//3 50//3 49//3
f 46//2 47//2 49//2 51//2
f 45//1 46//1 51//1 52//1
f 48//4 45//4 52//4 50//4
f 25//1 21//1 53//1 54//1
f 26//4 25//4 54//4 55//4
f 24//3 26//3 55//3 56//3
f 21//2 24//2 56//2 53//2
f 1//4 4//4 58//4 57//4
f 4//1 3//1 59//1 58//1
f 3//2 2//2 60//2 59//2
f 2//3 1//3 57//3 60//3
f 60//3 57//3 61//3 62//3
f 59//2 60//2 62//2 63//2
f 58//1 59//1 63//1 64//1
f 56//3 55//3 67//3 66//3
f 54//1 53//1 65//1 68//1
f 52//1 51//1 71//1 70//1
f 49//3 50//3 69//3 72//3
f 65//6 66//6 67//6 68//6
f 70//6 71//6 72//6 69//6
f 61//6 64//6 63//6 62//6
f 64//6 61//6 66//6 65//6
f 58//1 64//1 65//1 53//1
f 61//3 57//3 56//3 66//3
f 57//7 58//7 53//7 56//7
f 68//6 67//6 72//6 71//6
f 54//1 68//1 71//1 51//1
f 67//3 55//3 49//3 72//3
f 55//7 54//7 51//7 49//7
f 80//3 79//3 73//3 76//3
f 78//1 77//1 75//1 74//1
f 83//4 84//4 80//4 77//4
f 82//1 83//1 77//1 78//1
f 81//2 82//2 78//2 79//2
f 84//3 81//3 79//3 80//3
f 88//3 87//3 81//3 84//3
f 86//1 85//1 83//1 82//1
f 76//10 73//10 74//10 75//10
f 35//1 37//1 78//1 74//1
f 36//7 35//7 74//7 73//7
f 40//3 36//3 73//3 79//3
f 37//6 40//6 79//6 78//6
f 43//1 45//1 86//1 82//1
f 44//7 43//7 82//7 81//7
f 48//3 44//3 81//3 87//3
f 45//6 48//6 87//6 86//6
f 87//3 88//3 90//3 89//3
f 86//2 87//2 89//2 91//2
f 85//1 86//1 91//1 92//1
f 88//4 85//4 92//4 90//4
f 92//1 91//1 95//1 94//1
f 89//3 90//3 93//3 96//3
f 94//6 95//6 96//6 93//6
f 70//6 69//6 96//6 95//6
f 52//1 70//1 95//1 91//1
f 69//3 50//3 89//3 96//3
f 50//7 52//7 91//7 89//7
f 104//3 103//3 97//3 100//3
f 102//1 101//1 99//1 98//1
f 107//4 108//4 104//4 101//4
f 106//1 107//1 101//1 102//1
f 105//2 106//2 102//2 103//2
f 108//3 105//3 103//3 104//3
f 112//3 111//3 105//3 108//3
f 110//1 109//1 107//1 106//1
f 100//7 97//7 98//7 99//7
f 75//1 77//1 102//1 98//1
f 76//7 75//7 98//7 97//7
f 80//3 76//3 97//3 103//3
f 77//6 80//6 103//6 102//6
f 99//4 101//4 104//4 100//4
f 107//4 109//4 112//4 108//4
f 83//1 85//1 110//1 106//1
f 84//7 83//7 106//7 105//7
f 88//3 84//3 105//3 111//3
f 85//6 88//6 111//6 110//6
f 111//3 112//3 114//3 113//3
f 110//2 111//2 113//2 115//2
f 109//1 110//1 115//1 116//1
f 112//4 109//4 116//4 114//4
f 114//4 116//4 118//4 117//4
f 116//1 115//1 119//1 118//1
f 113//3 114//3 117//3 120//3
f 118//6 119//6 120//6 117//6
f 94//6 93//6 120//6 119//6
f 92//1 94//1 119//1 115//1
f 93//3 90//3 113//3 120//3
f 90//7 92//7 115//7 113//7
o glass_wall_h20_2.013_Cube.389
v 1.459401 9.826117 4.875071
v 1.459401 9.748605 4.875071
v 1.576849 9.748605 4.875071
v 1.576849 9.826117 4.875071
v 1.459401 9.826117 4.954912
v 1.576849 9.826117 4.954912
v 1.576849 9.748605 4.954912
v 1.459401 9.748605 4.954912
v 1.459401 9.826117 6.016829
v 1.459401 9.748605 6.016829
v 1.576849 9.748605 6.016829
v 1.576849 9.826117 6.016829
v 1.459401 9.826117 6.111186
v 1.576849 9.826117 6.111186
v 1.576849 9.748605 6.111186
v 1.459401 9.748605 6.111186
v 1.576849 11.729437 6.016829
v 1.576849 11.729437 6.111299
v 1.459401 11.729438 6.111299
v 1.459401 11.729438 6.016829
v 1.576849 11.729437 4.875071
v 1.576849 11.729437 4.954912
v 1.459401 11.729438 4.954912
v 1.459401 11.729438 4.875071
v 1.576850 11.800748 4.875071
v 1.459401 11.800749 4.875071
v 1.459401 11.800749 4.954912
v 1.576850 11.800748 4.954912
v 1.576850 11.800748 6.016829
v 1.459401 11.800749 6.016829
v 1.459401 11.800749 6.111299
v 1.576850 11.800748 6.111299
v 1.459399 13.700167 6.111186
v 1.576848 13.700167 6.111186
v 1.576848 13.770003 6.111242
v 1.459400 13.770003 6.111242
v 1.576848 13.770003 6.016829
v 1.576848 13.700167 6.016829
v 1.459399 13.700167 6.016829
v 1.459400 13.770003 6.016829
v 1.459399 13.700167 4.954912
v 1.576848 13.700167 4.954912
v 1.576848 13.770003 4.954912
v 1.459400 13.770003 4.954912
v 1.576848 13.770003 4.875071
v 1.576848 13.700167 4.875071
v 1.459399 13.700167 4.875071
v 1.459400 13.770003 4.875071
v 1.459399 13.700167 3.973593
v 1.459400 13.770003 3.973593
v 1.576848 13.700167 3.973593
v 1.576848 13.770003 3.973593
v 1.576849 11.729437 3.973593
v 1.576850 11.800748 3.973593
v 1.459401 11.800749 3.973593
v 1.459401 11.729438 3.973593
v 1.459401 9.826117 3.973593
v 1.576849 9.826117 3.973593
v 1.576849 9.748605 3.973593
v 1.459401 9.748605 3.973593
v 1.459401 9.826117 3.891640
v 1.459401 9.748605 3.891640
v 1.576849 9.748605 3.891640
v 1.576849 9.826117 3.891640
v 1.576849 11.729437 3.891640
v 1.459401 11.729438 3.891640
v 1.459401 11.800749 3.891640
v 1.576850 11.800748 3.891640
v 1.459400 13.770003 3.891640
v 1.576848 13.770003 3.891640
v 1.576848 13.700167 3.891640
v 1.459399 13.700167 3.891640
v 1.459399 15.670155 6.111186
v 1.576848 15.670155 6.111186
v 1.576848 15.747534 6.111215
v 1.459400 15.747534 6.111215
v 1.576848 15.747534 6.016829
v 1.576848 15.670155 6.016829
v 1.459399 15.670155 6.016829
v 1.459400 15.747534 6.016829
v 1.459399 15.670155 4.954912
v 1.576848 15.670155 4.954912
v 1.576848 15.747534 4.954912
v 1.459400 15.747534 4.954912
v 1.576848 15.747534 4.875071
v 1.576848 15.670155 4.875071
v 1.459399 15.670155 4.875071
v 1.459400 15.747534 4.875071
v 1.459399 15.670155 3.973593
v 1.459400 15.747534 3.973593
v 1.576848 15.670155 3.973593
v 1.576848 15.747534 3.973593
v 1.459400 15.747534 3.891640
v 1.576848 15.747534 3.891640
v 1.576848 15.670155 3.891640
v 1.459399 15.670155 3.891640
v 1.459400 17.647833 6.111186
v 1.576848 17.647833 6.111186
v 1.576848 17.726068 6.111186
v 1.459400 17.726068 6.111186
v 1.576848 17.726068 6.016829
v 1.576848 17.647833 6.016829
v 1.459400 17.647833 6.016829
v 1.459400 17.726068 6.016829
v 1.459400 17.647833 4.954912
v 1.576848 17.647833 4.954912
v 1.576848 17.726068 4.954912
v 1.459400 17.726068 4.954912
v 1.576848 17.726068 4.875071
v 1.576848 17.647833 4.875071
v 1.459400 17.647833 4.875071
v 1.459400 17.726068 4.875071
v 1.459400 17.647833 3.973593
v 1.459400 17.726068 3.973593
v 1.576848 17.647833 3.973593
v 1.576848 17.726068 3.973593
v 1.459400 17.726068 3.891640
v 1.576848 17.726068 3.891640
v 1.576848 17.647833 3.891640
v 1.459400 17.647833 3.891640
vn 1.0000 0.0000 0.0000
vn 0.0000 -1.0000 0.0000
vn -1.0000 0.0000 0.0000
vn 0.0000 1.0000 0.0000
vn -0.0000 -0.0001 1.0000
vn 0.0000 0.0000 -1.0000
vn 0.0000 0.0000 1.0000
vn 0.0000 -0.0008 1.0000
vn -0.0000 0.0001 1.0000
vn 0.0000 -0.0004 1.0000
usemtl M_glass_frame_black_glossy
s off
f 123//11 124//11 126//11 127//11
f 122//12 123//12 127//12 128//12
f 121//13 122//13 128//13 125//13
f 125//13 128//13 130//13 129//13
f 128//12 127//12 131//12 130//12
f 127//11 126//11 132//11 131//11
f 126//14 125//14 129//14 132//14
f 131//11 132//11 134//11 135//11
f 130//12 131//12 135//12 136//12
f 129//13 130//13 136//13 133//13
f 134//11 132//11 137//11 138//11
f 133//15 134//15 138//15 139//15
f 129//13 133//13 139//13 140//13
f 132//16 129//16 140//16 137//16
f 126//11 124//11 141//11 142//11
f 125//17 126//17 142//17 143//17
f 121//13 125//13 143//13 144//13
f 124//16 121//16 144//16 141//16
f 144//13 143//13 147//13 146//13
f 142//11 141//11 145//11 148//11
f 140//13 139//13 151//13 150//13
f 138//11 137//11 149//11 152//11
f 149//11 137//11 142//11 148//11
f 150//14 149//14 148//14 147//14
f 140//13 150//13 147//13 143//13
f 137//12 140//12 143//12 142//12
f 160//13 159//13 153//13 156//13
f 158//11 157//11 155//11 154//11
f 163//14 164//14 160//14 157//14
f 162//11 163//11 157//11 158//11
f 161//12 162//12 158//12 159//12
f 164//13 161//13 159//13 160//13
f 168//13 167//13 161//13 164//13
f 166//11 165//11 163//11 162//11
f 156//18 153//18 154//18 155//18
f 138//17 152//17 151//17 139//17
f 152//11 149//11 158//11 154//11
f 151//19 152//19 154//19 153//19
f 150//13 151//13 153//13 159//13
f 149//16 150//16 159//16 158//16
f 133//17 136//17 135//17 134//17
f 148//11 145//11 166//11 162//11
f 147//17 148//17 162//17 161//17
f 146//13 147//13 161//13 167//13
f 145//16 146//16 167//16 166//16
f 167//13 168//13 170//13 169//13
f 166//12 167//12 169//12 171//12
f 165//11 166//11 171//11 172//11
f 168//14 165//14 172//14 170//14
f 145//11 141//11 173//11 174//11
f 146//14 145//14 174//14 175//14
f 144//13 146//13 175//13 176//13
f 141//12 144//12 176//12 173//12
f 121//14 124//14 178//14 177//14
f 124//11 123//11 179//11 178//11
f 123//12 122//12 180//12 179//12
f 122//13 121//13 177//13 180//13
f 180//13 177//13 181//13 182//13
f 179//12 180//12 182//12 183//12
f 178//11 179//11 183//11 184//11
f 176//13 175//13 187//13 186//13
f 174//11 173//11 185//11 188//11
f 172//11 171//11 191//11 190//11
f 169//13 170//13 189//13 192//13
f 185//16 186//16 187//16 188//16
f 190//16 191//16 192//16 189//16
f 181//16 184//16 183//16 182//16
f 184//16 181//16 186//16 185//16
f 178//11 184//11 185//11 173//11
f 181//13 177//13 176//13 186//13
f 177//17 178//17 173//17 176//17
f 188//16 187//16 192//16 191//16
f 174//11 188//11 191//11 171//11
f 187//13 175//13 169//13 192//13
f 175//17 174//17 171//17 169//17
f 200//13 199//13 193//13 196//13
f 198//11 197//11 195//11 194//11
f 203//14 204//14 200//14 197//14
f 202//11 203//11 197//11 198//11
f 201//12 202//12 198//12 199//12
f 204//13 201//13 199//13 200//13
f 208//13 207//13 201//13 204//13
f 206//11 205//11 203//11 202//11
f 196//20 193//20 194//20 195//20
f 155//11 157//11 198//11 194//11
f 156//17 155//17 194//17 193//17
f 160//13 156//13 193//13 199//13
f 157//16 160//16 199//16 198//16
f 163//11 165//11 206//11 202//11
f 164//17 163//17 202//17 201//17
f 168//13 164//13 201//13 207//13
f 165//16 168//16 207//16 206//16
f 207//13 208//13 210//13 209//13
f 206//12 207//12 209//12 211//12
f 205//11 206//11 211//11 212//11
f 208//14 205//14 212//14 210//14
f 212//11 211//11 215//11 214//11
f 209//13 210//13 213//13 216//13
f 214//16 215//16 216//16 213//16
f 190//16 189//16 216//16 215//16
f 172//11 190//11 215//11 211//11
f 189//13 170//13 209//13 216//13
f 170//17 172//17 211//17 209//17
f 224//13 223//13 217//13 220//13
f 222//11 221//11 219//11 218//11
f 227//14 228//14 224//14 221//14
f 226//11 227//11 221//11 222//11
f 225//12 226//12 222//12 223//12
f 228//13 225//13 223//13 224//13
f 232//13 231//13 225//13 228//13
f 230//11 229//11 227//11 226//11
f 220//17 217//17 218//17 219//17
f 195//11 197//11 222//11 218//11
f 196//17 195//17 218//17 217//17
f 200//13 196//13 217//13 223//13
f 197//16 200//16 223//16 222//16
f 219//14 221//14 224//14 220//14
f 227//14 229//14 232//14 228//14
f 203//11 205//11 230//11 226//11
f 204//17 203//17 226//17 225//17
f 208//13 204//13 225//13 231//13
f 205//16 208//16 231//16 230//16
f 231//13 232//13 234//13 233//13
f 230//12 231//12 233//12 235//12
f 229//11 230//11 235//11 236//11
f 232//14 229//14 236//14 234//14
f 234//14 236//14 238//14 237//14
f 236//11 235//11 239//11 238//11
f 233//13 234//13 237//13 240//13
f 238//16 239//16 240//16 237//16
f 214//16 213//16 240//16 239//16
f 212//11 214//11 239//11 235//11
f 213//13 210//13 233//13 240//13
f 210//17 212//17 235//17 233//17
