# Blender v3.0.1 OBJ File: 'adream_empty.blend'
# www.blender.org
mtllib window_h100_1.mtl
o window_h120.003_Cube.193
v 5.187407 18.410706 4.885258
v 5.272495 18.410706 4.885258
v 5.272495 18.522560 4.885258
v 5.187407 18.522560 4.885258
v 5.187407 18.410706 4.935838
v 5.187407 18.522560 4.935838
v 5.272495 18.522560 4.935838
v 5.272495 18.410706 4.935838
v 5.187380 18.410706 5.911370
v 5.272468 18.410706 5.911370
v 5.272468 18.522560 5.911370
v 5.187380 18.522560 5.911370
v 5.187380 18.410706 5.962392
v 5.187380 18.522560 5.962392
v 5.272468 18.522560 5.962392
v 5.272468 18.410706 5.962392
v 3.890264 18.522562 5.911370
v 3.890264 18.522562 5.962504
v 3.890264 18.410706 5.962504
v 3.890264 18.410706 5.911370
v 3.890291 18.522562 4.885258
v 3.890291 18.522562 4.935838
v 3.890291 18.410706 4.935838
v 3.890291 18.410706 4.885258
v 3.803824 18.522562 4.885258
v 3.803824 18.410706 4.885258
v 3.803824 18.410706 4.935838
v 3.803824 18.522562 4.935838
v 3.803797 18.522562 5.911370
v 3.803797 18.410706 5.911370
v 3.803797 18.410706 5.962504
v 3.803797 18.522562 5.962504
vn 0.0000 1.0000 0.0000
vn 1.0000 0.0000 0.0000
vn 0.0000 -1.0000 0.0000
vn -1.0000 0.0000 -0.0000
vn 0.0001 0.0000 1.0000
vn 0.0000 0.0000 -1.0000
vn 0.0000 0.0000 1.0000
usemtl M_wood_white_painted
s off
f 3//1 4//1 6//1 7//1
f 2//2 3//2 7//2 8//2
f 1//3 2//3 8//3 5//3
f 5//3 8//3 10//3 9//3
f 8//2 7//2 11//2 10//2
f 7//1 6//1 12//1 11//1
f 6//4 5//4 9//4 12//4
f 11//1 12//1 14//1 15//1
f 10//2 11//2 15//2 16//2
f 9//3 10//3 16//3 13//3
f 14//1 12//1 17//1 18//1
f 13//5 14//5 18//5 19//5
f 9//3 13//3 19//3 20//3
f 12//6 9//6 20//6 17//6
f 6//1 4//1 21//1 22//1
f 5//7 6//7 22//7 23//7
f 1//3 5//3 23//3 24//3
f 24//3 23//3 27//3 26//3
f 22//1 21//1 25//1 28//1
f 20//3 19//3 31//3 30//3
f 18//1 17//1 29//1 32//1
f 29//1 17//1 22//1 28//1
f 30//4 29//4 28//4 27//4
f 20//3 30//3 27//3 23//3
f 17//2 20//2 23//2 22//2
f 18//7 32//7 31//7 19//7
f 13//7 16//7 15//7 14//7
f 27//4 28//4 25//4 26//4
f 29//4 30//4 31//4 32//4
f 21//6 24//6 26//6 25//6
f 1//6 24//6 21//6 4//6
f 1//6 4//6 3//6 2//6
o window_h120.002_Cube.191
v 3.005462 18.410706 4.885258
v 3.090550 18.410706 4.885258
v 3.090550 18.522560 4.885258
v 3.005462 18.522560 4.885258
v 3.005462 18.410706 4.935838
v 3.005462 18.522560 4.935838
v 3.090550 18.522560 4.935838
v 3.090550 18.410706 4.935838
v 3.005435 18.410706 5.911370
v 3.090524 18.410706 5.911370
v 3.090524 18.522560 5.911370
v 3.005436 18.522560 5.911370
v 3.005435 18.410706 5.962392
v 3.005436 18.522560 5.962392
v 3.090524 18.522560 5.962392
v 3.090524 18.410706 5.962392
v 1.708320 18.522562 5.911370
v 1.708320 18.522562 5.962504
v 1.708320 18.410706 5.962504
v 1.708320 18.410706 5.911370
v 1.708347 18.522562 4.885258
v 1.708347 18.522562 4.935838
v 1.708347 18.410706 4.935838
v 1.708347 18.410706 4.885258
v 1.621880 18.522562 4.885258
v 1.621880 18.410706 4.885258
v 1.621880 18.410706 4.935838
v 1.621880 18.522562 4.935838
v 1.621853 18.522562 5.911370
v 1.621853 18.410706 5.911370
v 1.621853 18.410706 5.962504
v 1.621853 18.522562 5.962504
vn 0.0000 1.0000 0.0000
vn 1.0000 0.0000 0.0000
vn 0.0000 -1.0000 0.0000
vn -1.0000 0.0000 -0.0000
vn 0.0001 0.0000 1.0000
vn 0.0000 0.0000 -1.0000
vn 0.0000 0.0000 1.0000
usemtl M_wood_white_painted
s off
f 35//8 36//8 38//8 39//8
f 34//9 35//9 39//9 40//9
f 33//10 34//10 40//10 37//10
f 37//10 40//10 42//10 41//10
f 40//9 39//9 43//9 42//9
f 39//8 38//8 44//8 43//8
f 38//11 37//11 41//11 44//11
f 43//8 44//8 46//8 47//8
f 42//9 43//9 47//9 48//9
f 41//10 42//10 48//10 45//10
f 46//8 44//8 49//8 50//8
f 45//12 46//12 50//12 51//12
f 41//10 45//10 51//10 52//10
f 44//13 41//13 52//13 49//13
f 38//8 36//8 53//8 54//8
f 37//14 38//14 54//14 55//14
f 33//10 37//10 55//10 56//10
f 56//10 55//10 59//10 58//10
f 54//8 53//8 57//8 60//8
f 52//10 51//10 63//10 62//10
f 50//8 49//8 61//8 64//8
f 61//8 49//8 54//8 60//8
f 62//11 61//11 60//11 59//11
f 52//10 62//10 59//10 55//10
f 49//9 52//9 55//9 54//9
f 50//14 64//14 63//14 51//14
f 45//14 48//14 47//14 46//14
f 59//11 60//11 57//11 58//11
f 61//11 62//11 63//11 64//11
f 53//13 56//13 58//13 57//13
f 33//13 56//13 53//13 36//13
f 33//13 36//13 35//13 34//13
o window_h120.001_Cube.189
v 8.620235 18.410908 4.885258
v 8.705324 18.410908 4.885258
v 8.705324 18.522762 4.885258
v 8.620235 18.522762 4.885258
v 8.620235 18.410908 4.935838
v 8.620235 18.522762 4.935838
v 8.705324 18.522762 4.935838
v 8.705324 18.410908 4.935838
v 8.620209 18.410908 5.911370
v 8.705297 18.410908 5.911370
v 8.705297 18.522762 5.911370
v 8.620209 18.522762 5.911370
v 8.620209 18.410908 5.962392
v 8.620209 18.522762 5.962392
v 8.705297 18.522762 5.962392
v 8.705297 18.410908 5.962392
v 7.323093 18.522764 5.911370
v 7.323093 18.522764 5.962504
v 7.323093 18.410908 5.962504
v 7.323093 18.410908 5.911370
v 7.323120 18.522764 4.885258
v 7.323120 18.522764 4.935838
v 7.323120 18.410908 4.935838
v 7.323120 18.410908 4.885258
v 7.236653 18.522764 4.885258
v 7.236653 18.410908 4.885258
v 7.236653 18.410908 4.935838
v 7.236653 18.522764 4.935838
v 7.236626 18.522764 5.911370
v 7.236626 18.410908 5.911370
v 7.236626 18.410908 5.962504
v 7.236626 18.522764 5.962504
vn 0.0000 1.0000 0.0000
vn 1.0000 0.0000 0.0000
vn 0.0000 -1.0000 0.0000
vn -1.0000 0.0000 -0.0000
vn 0.0001 0.0000 1.0000
vn 0.0000 0.0000 -1.0000
vn 0.0000 0.0000 1.0000
usemtl M_wood_white_painted
s off
f 67//15 68//15 70//15 71//15
f 66//16 67//16 71//16 72//16
f 65//17 66//17 72//17 69//17
f 69//17 72//17 74//17 73//17
f 72//16 71//16 75//16 74//16
f 71//15 70//15 76//15 75//15
f 70//18 69//18 73//18 76//18
f 75//15 76//15 78//15 79//15
f 74//16 75//16 79//16 80//16
f 73//17 74//17 80//17 77//17
f 78//15 76//15 81//15 82//15
f 77//19 78//19 82//19 83//19
f 73//17 77//17 83//17 84//17
f 76//20 73//20 84//20 81//20
f 70//15 68//15 85//15 86//15
f 69//21 70//21 86//21 87//21
f 65//17 69//17 87//17 88//17
f 88//17 87//17 91//17 90//17
f 86//15 85//15 89//15 92//15
f 84//17 83//17 95//17 94//17
f 82//15 81//15 93//15 96//15
f 93//15 81//15 86//15 92//15
f 94//18 93//18 92//18 91//18
f 84//17 94//17 91//17 87//17
f 81//16 84//16 87//16 86//16
f 82//21 96//21 95//21 83//21
f 77//21 80//21 79//21 78//21
f 91//18 92//18 89//18 90//18
f 93//18 94//18 95//18 96//18
f 85//20 88//20 90//20 89//20
f 65//20 88//20 85//20 68//20
f 65//20 68//20 67//20 66//20
o window_h120_Cube.187
v 10.802179 18.410908 4.885258
v 10.887268 18.410908 4.885258
v 10.887268 18.522762 4.885258
v 10.802179 18.522762 4.885258
v 10.802179 18.410908 4.935838
v 10.802179 18.522762 4.935838
v 10.887268 18.522762 4.935838
v 10.887268 18.410908 4.935838
v 10.802153 18.410908 5.911370
v 10.887241 18.410908 5.911370
v 10.887241 18.522762 5.911370
v 10.802153 18.522762 5.911370
v 10.802153 18.410908 5.962392
v 10.802153 18.522762 5.962392
v 10.887241 18.522762 5.962392
v 10.887241 18.410908 5.962392
v 9.505037 18.522764 5.911370
v 9.505037 18.522764 5.962504
v 9.505037 18.410908 5.962504
v 9.505037 18.410908 5.911370
v 9.505064 18.522764 4.885258
v 9.505064 18.522764 4.935838
v 9.505064 18.410908 4.935838
v 9.505064 18.410908 4.885258
v 9.418597 18.522764 4.885258
v 9.418597 18.410908 4.885258
v 9.418597 18.410908 4.935838
v 9.418597 18.522764 4.935838
v 9.418571 18.522764 5.911370
v 9.418571 18.410908 5.911370
v 9.418571 18.410908 5.962504
v 9.418571 18.522764 5.962504
vn 0.0000 1.0000 0.0000
vn 1.0000 0.0000 0.0000
vn 0.0000 -1.0000 0.0000
vn -1.0000 0.0000 -0.0000
vn 0.0001 0.0000 1.0000
vn 0.0000 0.0000 -1.0000
vn 0.0000 0.0000 1.0000
usemtl M_wood_white_painted
s off
f 99//22 100//22 102//22 103//22
f 98//23 99//23 103//23 104//23
f 97//24 98//24 104//24 101//24
f 101//24 104//24 106//24 105//24
f 104//23 103//23 107//23 106//23
f 103//22 102//22 108//22 107//22
f 102//25 101//25 105//25 108//25
f 107//22 108//22 110//22 111//22
f 106//23 107//23 111//23 112//23
f 105//24 106//24 112//24 109//24
f 110//22 108//22 113//22 114//22
f 109//26 110//26 114//26 115//26
f 105//24 109//24 115//24 116//24
f 108//27 105//27 116//27 113//27
f 102//22 100//22 117//22 118//22
f 101//28 102//28 118//28 119//28
f 97//24 101//24 119//24 120//24
f 120//24 119//24 123//24 122//24
f 118//22 117//22 121//22 124//22
f 116//24 115//24 127//24 126//24
f 114//22 113//22 125//22 128//22
f 125//22 113//22 118//22 124//22
f 126//25 125//25 124//25 123//25
f 116//24 126//24 123//24 119//24
f 113//23 116//23 119//23 118//23
f 114//28 128//28 127//28 115//28
f 109//28 112//28 111//28 110//28
f 123//25 124//25 121//25 122//25
f 125//25 126//25 127//25 128//25
f 117//27 120//27 122//27 121//27
f 97//27 120//27 117//27 100//27
f 97//27 100//27 99//27 98//27
o window_h121.001_Cube.181
v 3.005462 0.158704 4.885258
v 3.090550 0.158704 4.885258
v 3.090550 0.270559 4.885258
v 3.005462 0.270559 4.885258
v 3.005462 0.158704 4.935838
v 3.005462 0.270559 4.935838
v 3.090550 0.270559 4.935838
v 3.090550 0.158704 4.935838
v 3.005435 0.158704 5.911370
v 3.090524 0.158704 5.911370
v 3.090524 0.270559 5.911370
v 3.005436 0.270559 5.911370
v 3.005435 0.158704 5.962392
v 3.005436 0.270559 5.962392
v 3.090524 0.270559 5.962392
v 3.090524 0.158704 5.962392
v 1.708320 0.270561 5.911370
v 1.708320 0.270561 5.962504
v 1.708320 0.158705 5.962504
v 1.708320 0.158705 5.911370
v 1.708347 0.270561 4.885258
v 1.708347 0.270561 4.935838
v 1.708347 0.158705 4.935838
v 1.708347 0.158705 4.885258
v 1.621880 0.270561 4.885258
v 1.621880 0.158705 4.885258
v 1.621880 0.158705 4.935838
v 1.621880 0.270561 4.935838
v 1.621853 0.270561 5.911370
v 1.621853 0.158705 5.911370
v 1.621853 0.158705 5.962504
v 1.621853 0.270561 5.962504
vn 0.0000 1.0000 0.0000
vn 1.0000 0.0000 0.0000
vn -0.0000 -1.0000 0.0000
vn -1.0000 0.0000 -0.0000
vn 0.0001 0.0000 1.0000
vn 0.0000 0.0000 -1.0000
vn 0.0000 0.0000 1.0000
usemtl M_wood_white_painted
s off
f 131//29 132//29 134//29 135//29
f 130//30 131//30 135//30 136//30
f 129//31 130//31 136//31 133//31
f 133//31 136//31 138//31 137//31
f 136//30 135//30 139//30 138//30
f 135//29 134//29 140//29 139//29
f 134//32 133//32 137//32 140//32
f 139//29 140//29 142//29 143//29
f 138//30 139//30 143//30 144//30
f 137//31 138//31 144//31 141//31
f 142//29 140//29 145//29 146//29
f 141//33 142//33 146//33 147//33
f 137//31 141//31 147//31 148//31
f 140//34 137//34 148//34 145//34
f 134//29 132//29 149//29 150//29
f 133//35 134//35 150//35 151//35
f 129//31 133//31 151//31 152//31
f 152//31 151//31 155//31 154//31
f 150//29 149//29 153//29 156//29
f 148//31 147//31 159//31 158//31
f 146//29 145//29 157//29 160//29
f 157//29 145//29 150//29 156//29
f 158//32 157//32 156//32 155//32
f 148//31 158//31 155//31 151//31
f 145//30 148//30 151//30 150//30
f 146//35 160//35 159//35 147//35
f 141//35 144//35 143//35 142//35
f 155//32 156//32 153//32 154//32
f 157//32 158//32 159//32 160//32
f 149//34 152//34 154//34 153//34
f 129//34 152//34 149//34 132//34
f 129//34 132//34 131//34 130//34
o window_h121_Cube.179
v 5.187407 0.158704 4.885258
v 5.272495 0.158704 4.885258
v 5.272495 0.270559 4.885258
v 5.187407 0.270559 4.885258
v 5.187407 0.158704 4.935838
v 5.187407 0.270559 4.935838
v 5.272495 0.270559 4.935838
v 5.272495 0.158704 4.935838
v 5.187380 0.158704 5.911370
v 5.272468 0.158704 5.911370
v 5.272468 0.270559 5.911370
v 5.187380 0.270559 5.911370
v 5.187380 0.158704 5.962392
v 5.187380 0.270559 5.962392
v 5.272468 0.270559 5.962392
v 5.272468 0.158704 5.962392
v 3.890264 0.270561 5.911370
v 3.890264 0.270561 5.962504
v 3.890264 0.158705 5.962504
v 3.890264 0.158705 5.911370
v 3.890291 0.270561 4.885258
v 3.890291 0.270561 4.935838
v 3.890291 0.158705 4.935838
v 3.890291 0.158705 4.885258
v 3.803824 0.270561 4.885258
v 3.803824 0.158705 4.885258
v 3.803824 0.158705 4.935838
v 3.803824 0.270561 4.935838
v 3.803797 0.270561 5.911370
v 3.803797 0.158705 5.911370
v 3.803797 0.158705 5.962504
v 3.803797 0.270561 5.962504
vn 0.0000 1.0000 0.0000
vn 1.0000 0.0000 0.0000
vn -0.0000 -1.0000 0.0000
vn -1.0000 0.0000 -0.0000
vn 0.0001 0.0000 1.0000
vn 0.0000 0.0000 -1.0000
vn 0.0000 0.0000 1.0000
usemtl M_wood_white_painted
s off
f 163//36 164//36 166//36 167//36
f 162//37 163//37 167//37 168//37
f 161//38 162//38 168//38 165//38
f 165//38 168//38 170//38 169//38
f 168//37 167//37 171//37 170//37
f 167//36 166//36 172//36 171//36
f 166//39 165//39 169//39 172//39
f 171//36 172//36 174//36 175//36
f 170//37 171//37 175//37 176//37
f 169//38 170//38 176//38 173//38
f 174//36 172//36 177//36 178//36
f 173//40 174//40 178//40 179//40
f 169//38 173//38 179//38 180//38
f 172//41 169//41 180//41 177//41
f 166//36 164//36 181//36 182//36
f 165//42 166//42 182//42 183//42
f 161//38 165//38 183//38 184//38
f 184//38 183//38 187//38 186//38
f 182//36 181//36 185//36 188//36
f 180//38 179//38 191//38 190//38
f 178//36 177//36 189//36 192//36
f 189//36 177//36 182//36 188//36
f 190//39 189//39 188//39 187//39
f 180//38 190//38 187//38 183//38
f 177//37 180//37 183//37 182//37
f 178//42 192//42 191//42 179//42
f 173//42 176//42 175//42 174//42
f 187//39 188//39 185//39 186//39
f 189//39 190//39 191//39 192//39
f 181//41 184//41 186//41 185//41
f 161//41 184//41 181//41 164//41
f 161//41 164//41 163//41 162//41
o window_h121.003_Cube.185
v 10.802179 0.158907 4.885258
v 10.887268 0.158907 4.885258
v 10.887268 0.270763 4.885258
v 10.802179 0.270763 4.885258
v 10.802179 0.158907 4.935838
v 10.802179 0.270763 4.935838
v 10.887268 0.270763 4.935838
v 10.887268 0.158907 4.935838
v 10.802153 0.158907 5.911370
v 10.887241 0.158907 5.911370
v 10.887241 0.270763 5.911370
v 10.802153 0.270763 5.911370
v 10.802153 0.158907 5.962392
v 10.802153 0.270763 5.962392
v 10.887241 0.270763 5.962392
v 10.887241 0.158907 5.962392
v 9.505037 0.270764 5.911370
v 9.505037 0.270764 5.962504
v 9.505037 0.158908 5.962504
v 9.505037 0.158908 5.911370
v 9.505064 0.270764 4.885258
v 9.505064 0.270764 4.935838
v 9.505064 0.158908 4.935838
v 9.505064 0.158908 4.885258
v 9.418597 0.270764 4.885258
v 9.418597 0.158908 4.885258
v 9.418597 0.158908 4.935838
v 9.418597 0.270764 4.935838
v 9.418571 0.270764 5.911370
v 9.418571 0.158908 5.911370
v 9.418571 0.158908 5.962504
v 9.418571 0.270764 5.962504
vn 0.0000 1.0000 0.0000
vn 1.0000 0.0000 0.0000
vn -0.0000 -1.0000 0.0000
vn -1.0000 0.0000 -0.0000
vn 0.0001 0.0000 1.0000
vn 0.0000 0.0000 -1.0000
vn 0.0000 0.0000 1.0000
usemtl M_wood_white_painted
s off
f 195//43 196//43 198//43 199//43
f 194//44 195//44 199//44 200//44
f 193//45 194//45 200//45 197//45
f 197//45 200//45 202//45 201//45
f 200//44 199//44 203//44 202//44
f 199//43 198//43 204//43 203//43
f 198//46 197//46 201//46 204//46
f 203//43 204//43 206//43 207//43
f 202//44 203//44 207//44 208//44
f 201//45 202//45 208//45 205//45
f 206//43 204//43 209//43 210//43
f 205//47 206//47 210//47 211//47
f 201//45 205//45 211//45 212//45
f 204//48 201//48 212//48 209//48
f 198//43 196//43 213//43 214//43
f 197//49 198//49 214//49 215//49
f 193//45 197//45 215//45 216//45
f 216//45 215//45 219//45 218//45
f 214//43 213//43 217//43 220//43
f 212//45 211//45 223//45 222//45
f 210//43 209//43 221//43 224//43
f 221//43 209//43 214//43 220//43
f 222//46 221//46 220//46 219//46
f 212//45 222//45 219//45 215//45
f 209//44 212//44 215//44 214//44
f 210//49 224//49 223//49 211//49
f 205//49 208//49 207//49 206//49
f 219//46 220//46 217//46 218//46
f 221//46 222//46 223//46 224//46
f 213//48 216//48 218//48 217//48
f 193//48 216//48 213//48 196//48
f 193//48 196//48 195//48 194//48
o window_h121.002_Cube.183
v 8.620235 0.158907 4.885258
v 8.705324 0.158907 4.885258
v 8.705324 0.270763 4.885258
v 8.620235 0.270763 4.885258
v 8.620235 0.158907 4.935838
v 8.620235 0.270763 4.935838
v 8.705324 0.270763 4.935838
v 8.705324 0.158907 4.935838
v 8.620209 0.158907 5.911370
v 8.705297 0.158907 5.911370
v 8.705297 0.270763 5.911370
v 8.620209 0.270763 5.911370
v 8.620209 0.158907 5.962392
v 8.620209 0.270763 5.962392
v 8.705297 0.270763 5.962392
v 8.705297 0.158907 5.962392
v 7.323093 0.270764 5.911370
v 7.323093 0.270764 5.962504
v 7.323093 0.158908 5.962504
v 7.323093 0.158908 5.911370
v 7.323120 0.270764 4.885258
v 7.323120 0.270764 4.935838
v 7.323120 0.158908 4.935838
v 7.323120 0.158908 4.885258
v 7.236653 0.270764 4.885258
v 7.236653 0.158908 4.885258
v 7.236653 0.158908 4.935838
v 7.236653 0.270764 4.935838
v 7.236626 0.270764 5.911370
v 7.236626 0.158908 5.911370
v 7.236626 0.158908 5.962504
v 7.236626 0.270764 5.962504
vn 0.0000 1.0000 0.0000
vn 1.0000 0.0000 0.0000
vn -0.0000 -1.0000 0.0000
vn -1.0000 0.0000 -0.0000
vn 0.0001 0.0000 1.0000
vn 0.0000 0.0000 -1.0000
vn 0.0000 0.0000 1.0000
usemtl M_wood_white_painted
s off
f 227//50 228//50 230//50 231//50
f 226//51 227//51 231//51 232//51
f 225//52 226//52 232//52 229//52
f 229//52 232//52 234//52 233//52
f 232//51 231//51 235//51 234//51
f 231//50 230//50 236//50 235//50
f 230//53 229//53 233//53 236//53
f 235//50 236//50 238//50 239//50
f 234//51 235//51 239//51 240//51
f 233//52 234//52 240//52 237//52
f 238//50 236//50 241//50 242//50
f 237//54 238//54 242//54 243//54
f 233//52 237//52 243//52 244//52
f 236//55 233//55 244//55 241//55
f 230//50 228//50 245//50 246//50
f 229//56 230//56 246//56 247//56
f 225//52 229//52 247//52 248//52
f 248//52 247//52 251//52 250//52
f 246//50 245//50 249//50 252//50
f 244//52 243//52 255//52 254//52
f 242//50 241//50 253//50 256//50
f 253//50 241//50 246//50 252//50
f 254//53 253//53 252//53 251//53
f 244//52 254//52 251//52 247//52
f 241//51 244//51 247//51 246//51
f 242//56 256//56 255//56 243//56
f 237//56 240//56 239//56 238//56
f 251//53 252//53 249//53 250//53
f 253//53 254//53 255//53 256//53
f 245//55 248//55 250//55 249//55
f 225//55 248//55 245//55 228//55
f 225//55 228//55 227//55 226//55
