# Blender v3.0.1 OBJ File: 'adream_empty.blend'
# www.blender.org
mtllib window_h100_2.mtl
o glass_wall_h20_2.010_Cube.383
v 11.518518 8.780268 4.875071
v 11.518518 8.636597 4.875071
v 11.630374 8.636597 4.875071
v 11.630375 8.780268 4.875071
v 11.518518 8.780268 4.954912
v 11.630375 8.780268 4.954912
v 11.630374 8.636597 4.954912
v 11.518518 8.636597 4.954912
v 11.518518 8.780268 6.016829
v 11.518518 8.636597 6.016829
v 11.630374 8.636597 6.016829
v 11.630375 8.780268 6.016829
v 11.518518 8.780268 6.111186
v 11.630375 8.780268 6.111186
v 11.630374 8.636597 6.111186
v 11.518518 8.636597 6.111186
v 11.630376 10.139309 6.016829
v 11.630376 10.139309 6.111299
v 11.518520 10.139309 6.111299
v 11.518520 10.139309 6.016829
v 11.630376 10.139309 4.875071
v 11.630376 10.139309 4.954912
v 11.518520 10.139309 4.954912
v 11.518520 10.139309 4.875071
v 11.630376 10.269474 4.875071
v 11.518520 10.269474 4.875071
v 11.518520 10.269474 4.954912
v 11.630376 10.269474 4.954912
v 11.630376 10.269474 6.016829
v 11.518520 10.269474 6.016829
v 11.518520 10.269474 6.111299
v 11.630376 10.269474 6.111299
v 11.518519 11.633876 6.111186
v 11.630375 11.633876 6.111186
v 11.630376 11.777515 6.111242
v 11.518519 11.777515 6.111242
v 11.630376 11.777515 6.016829
v 11.630375 11.633876 6.016829
v 11.518519 11.633876 6.016829
v 11.518519 11.777515 6.016829
v 11.518519 11.633876 4.954912
v 11.630375 11.633876 4.954912
v 11.630376 11.777515 4.954912
v 11.518519 11.777515 4.954912
v 11.630376 11.777515 4.875071
v 11.630375 11.633876 4.875071
v 11.518519 11.633876 4.875071
v 11.518519 11.777515 4.875071
v 11.518519 11.633876 3.973593
v 11.518519 11.777515 3.973593
v 11.630375 11.633876 3.973593
v 11.630376 11.777515 3.973593
v 11.630376 10.139309 3.973593
v 11.630376 10.269474 3.973593
v 11.518520 10.269474 3.973593
v 11.518520 10.139309 3.973593
v 11.518518 8.780268 3.973593
v 11.630375 8.780268 3.973593
v 11.630374 8.636597 3.973593
v 11.518518 8.636597 3.973593
v 11.518518 8.780268 3.891640
v 11.518518 8.636597 3.891640
v 11.630374 8.636597 3.891640
v 11.630375 8.780268 3.891640
v 11.630376 10.139309 3.891640
v 11.518520 10.139309 3.891640
v 11.518520 10.269474 3.891640
v 11.630376 10.269474 3.891640
v 11.518519 11.777515 3.891640
v 11.630376 11.777515 3.891640
v 11.630375 11.633876 3.891640
v 11.518519 11.633876 3.891640
v 11.518519 13.141888 6.111186
v 11.630375 13.141888 6.111186
v 11.630375 13.285559 6.111186
v 11.518519 13.285559 6.111186
v 11.630375 13.285559 6.016829
v 11.630375 13.141888 6.016829
v 11.518519 13.141888 6.016829
v 11.518519 13.285559 6.016829
v 11.518519 13.141888 4.954912
v 11.630375 13.141888 4.954912
v 11.630375 13.285559 4.954912
v 11.518519 13.285559 4.954912
v 11.630375 13.285559 4.875071
v 11.630375 13.141888 4.875071
v 11.518519 13.141888 4.875071
v 11.518519 13.285559 4.875071
v 11.518519 13.141888 3.973593
v 11.518519 13.285559 3.973593
v 11.630375 13.141888 3.973593
v 11.630375 13.285559 3.973593
v 11.518519 13.285559 3.891640
v 11.630375 13.285559 3.891640
v 11.630375 13.141888 3.891640
v 11.518519 13.141888 3.891640
vn 1.0000 -0.0000 0.0000
vn 0.0000 -1.0000 0.0000
vn -1.0000 0.0000 0.0000
vn 0.0000 1.0000 0.0000
vn 0.0000 -0.0001 1.0000
vn 0.0000 0.0000 -1.0000
vn 0.0000 0.0000 1.0000
vn 0.0000 -0.0004 1.0000
vn 0.0000 0.0001 1.0000
usemtl M_glass_frame_black_glossy
s off
f 3//1 4//1 6//1 7//1
f 2//2 3//2 7//2 8//2
f 1//3 2//3 8//3 5//3
f 5//3 8//3 10//3 9//3
f 8//2 7//2 11//2 10//2
f 7//1 6//1 12//1 11//1
f 6//4 5//4 9//4 12//4
f 11//1 12//1 14//1 15//1
f 10//2 11//2 15//2 16//2
f 9//3 10//3 16//3 13//3
f 14//1 12//1 17//1 18//1
f 13//5 14//5 18//5 19//5
f 9//3 13//3 19//3 20//3
f 12//6 9//6 20//6 17//6
f 6//1 4//1 21//1 22//1
f 5//7 6//7 22//7 23//7
f 1//3 5//3 23//3 24//3
f 4//6 1//6 24//6 21//6
f 24//3 23//3 27//3 26//3
f 22//1 21//1 25//1 28//1
f 20//3 19//3 31//3 30//3
f 18//1 17//1 29//1 32//1
f 29//1 17//1 22//1 28//1
f 30//4 29//4 28//4 27//4
f 20//3 30//3 27//3 23//3
f 17//2 20//2 23//2 22//2
f 40//3 39//3 33//3 36//3
f 38//1 37//1 35//1 34//1
f 43//4 44//4 40//4 37//4
f 42//1 43//1 37//1 38//1
f 41//2 42//2 38//2 39//2
f 44//3 41//3 39//3 40//3
f 48//3 47//3 41//3 44//3
f 46//1 45//1 43//1 42//1
f 36//8 33//8 34//8 35//8
f 18//7 32//7 31//7 19//7
f 32//1 29//1 38//1 34//1
f 31//9 32//9 34//9 33//9
f 30//3 31//3 33//3 39//3
f 29//6 30//6 39//6 38//6
f 13//7 16//7 15//7 14//7
f 28//1 25//1 46//1 42//1
f 27//7 28//7 42//7 41//7
f 26//3 27//3 41//3 47//3
f 25//6 26//6 47//6 46//6
f 47//3 48//3 50//3 49//3
f 46//2 47//2 49//2 51//2
f 45//1 46//1 51//1 52//1
f 48//4 45//4 52//4 50//4
f 25//1 21//1 53//1 54//1
f 26//4 25//4 54//4 55//4
f 24//3 26//3 55//3 56//3
f 21//2 24//2 56//2 53//2
f 1//4 4//4 58//4 57//4
f 4//1 3//1 59//1 58//1
f 3//2 2//2 60//2 59//2
f 2//3 1//3 57//3 60//3
f 60//3 57//3 61//3 62//3
f 59//2 60//2 62//2 63//2
f 58//1 59//1 63//1 64//1
f 56//3 55//3 67//3 66//3
f 54//1 53//1 65//1 68//1
f 52//1 51//1 71//1 70//1
f 49//3 50//3 69//3 72//3
f 65//6 66//6 67//6 68//6
f 70//6 71//6 72//6 69//6
f 61//6 64//6 63//6 62//6
f 64//6 61//6 66//6 65//6
f 58//1 64//1 65//1 53//1
f 61//3 57//3 56//3 66//3
f 57//7 58//7 53//7 56//7
f 68//6 67//6 72//6 71//6
f 54//1 68//1 71//1 51//1
f 67//3 55//3 49//3 72//3
f 55//7 54//7 51//7 49//7
f 80//3 79//3 73//3 76//3
f 78//1 77//1 75//1 74//1
f 83//4 84//4 80//4 77//4
f 82//1 83//1 77//1 78//1
f 81//2 82//2 78//2 79//2
f 84//3 81//3 79//3 80//3
f 88//3 87//3 81//3 84//3
f 86//1 85//1 83//1 82//1
f 76//7 73//7 74//7 75//7
f 35//1 37//1 78//1 74//1
f 36//7 35//7 74//7 73//7
f 40//3 36//3 73//3 79//3
f 37//6 40//6 79//6 78//6
f 75//4 77//4 80//4 76//4
f 83//4 85//4 88//4 84//4
f 43//1 45//1 86//1 82//1
f 44//7 43//7 82//7 81//7
f 48//3 44//3 81//3 87//3
f 45//6 48//6 87//6 86//6
f 87//3 88//3 90//3 89//3
f 86//2 87//2 89//2 91//2
f 85//1 86//1 91//1 92//1
f 88//4 85//4 92//4 90//4
f 90//4 92//4 94//4 93//4
f 92//1 91//1 95//1 94//1
f 89//3 90//3 93//3 96//3
f 94//6 95//6 96//6 93//6
f 70//6 69//6 96//6 95//6
f 52//1 70//1 95//1 91//1
f 69//3 50//3 89//3 96//3
f 50//7 52//7 91//7 89//7
o glass_wall_h20_2.009_Cube.381
v 11.518518 13.826310 4.875071
v 11.518518 13.682639 4.875071
v 11.630374 13.682639 4.875071
v 11.630375 13.826310 4.875071
v 11.518518 13.826310 4.954912
v 11.630375 13.826310 4.954912
v 11.630374 13.682639 4.954912
v 11.518518 13.682639 4.954912
v 11.518518 13.826310 6.016829
v 11.518518 13.682639 6.016829
v 11.630374 13.682639 6.016829
v 11.630375 13.826310 6.016829
v 11.518518 13.826310 6.111186
v 11.630375 13.826310 6.111186
v 11.630374 13.682639 6.111186
v 11.518518 13.682639 6.111186
v 11.630376 15.185351 6.016829
v 11.630376 15.185351 6.111299
v 11.518520 15.185351 6.111299
v 11.518520 15.185351 6.016829
v 11.630376 15.185351 4.875071
v 11.630376 15.185351 4.954912
v 11.518520 15.185351 4.954912
v 11.518520 15.185351 4.875071
v 11.630376 15.315516 4.875071
v 11.518520 15.315516 4.875071
v 11.518520 15.315516 4.954912
v 11.630376 15.315516 4.954912
v 11.630376 15.315516 6.016829
v 11.518520 15.315516 6.016829
v 11.518520 15.315516 6.111299
v 11.630376 15.315516 6.111299
v 11.518519 16.679918 6.111186
v 11.630375 16.679918 6.111186
v 11.630376 16.823559 6.111242
v 11.518519 16.823559 6.111242
v 11.630376 16.823559 6.016829
v 11.630375 16.679918 6.016829
v 11.518519 16.679918 6.016829
v 11.518519 16.823559 6.016829
v 11.518519 16.679918 4.954912
v 11.630375 16.679918 4.954912
v 11.630376 16.823559 4.954912
v 11.518519 16.823559 4.954912
v 11.630376 16.823559 4.875071
v 11.630375 16.679918 4.875071
v 11.518519 16.679918 4.875071
v 11.518519 16.823559 4.875071
v 11.518519 16.679918 3.973593
v 11.518519 16.823559 3.973593
v 11.630375 16.679918 3.973593
v 11.630376 16.823559 3.973593
v 11.630376 15.185351 3.973593
v 11.630376 15.315516 3.973593
v 11.518520 15.315516 3.973593
v 11.518520 15.185351 3.973593
v 11.518518 13.826310 3.973593
v 11.630375 13.826310 3.973593
v 11.630374 13.682639 3.973593
v 11.518518 13.682639 3.973593
v 11.518518 13.826310 3.891640
v 11.518518 13.682639 3.891640
v 11.630374 13.682639 3.891640
v 11.630375 13.826310 3.891640
v 11.630376 15.185351 3.891640
v 11.518520 15.185351 3.891640
v 11.518520 15.315516 3.891640
v 11.630376 15.315516 3.891640
v 11.518519 16.823559 3.891640
v 11.630376 16.823559 3.891640
v 11.630375 16.679918 3.891640
v 11.518519 16.679918 3.891640
v 11.518519 18.187931 6.111186
v 11.630375 18.187931 6.111186
v 11.630375 18.331600 6.111186
v 11.518519 18.331600 6.111186
v 11.630375 18.331600 6.016829
v 11.630375 18.187931 6.016829
v 11.518519 18.187931 6.016829
v 11.518519 18.331600 6.016829
v 11.518519 18.187931 4.954912
v 11.630375 18.187931 4.954912
v 11.630375 18.331600 4.954912
v 11.518519 18.331600 4.954912
v 11.630375 18.331600 4.875071
v 11.630375 18.187931 4.875071
v 11.518519 18.187931 4.875071
v 11.518519 18.331600 4.875071
v 11.518519 18.187931 3.973593
v 11.518519 18.331600 3.973593
v 11.630375 18.187931 3.973593
v 11.630375 18.331600 3.973593
v 11.518519 18.331600 3.891640
v 11.630375 18.331600 3.891640
v 11.630375 18.187931 3.891640
v 11.518519 18.187931 3.891640
vn 1.0000 -0.0000 0.0000
vn 0.0000 -1.0000 0.0000
vn -1.0000 0.0000 0.0000
vn 0.0000 1.0000 0.0000
vn 0.0000 -0.0001 1.0000
vn 0.0000 0.0000 -1.0000
vn 0.0000 0.0000 1.0000
vn 0.0000 -0.0004 1.0000
vn 0.0000 0.0001 1.0000
usemtl M_glass_frame_black_glossy
s off
f 99//10 100//10 102//10 103//10
f 98//11 99//11 103//11 104//11
f 97//12 98//12 104//12 101//12
f 101//12 104//12 106//12 105//12
f 104//11 103//11 107//11 106//11
f 103//10 102//10 108//10 107//10
f 102//13 101//13 105//13 108//13
f 107//10 108//10 110//10 111//10
f 106//11 107//11 111//11 112//11
f 105//12 106//12 112//12 109//12
f 110//10 108//10 113//10 114//10
f 109//14 110//14 114//14 115//14
f 105//12 109//12 115//12 116//12
f 108//15 105//15 116//15 113//15
f 102//10 100//10 117//10 118//10
f 101//16 102//16 118//16 119//16
f 97//12 101//12 119//12 120//12
f 100//15 97//15 120//15 117//15
f 120//12 119//12 123//12 122//12
f 118//10 117//10 121//10 124//10
f 116//12 115//12 127//12 126//12
f 114//10 113//10 125//10 128//10
f 125//10 113//10 118//10 124//10
f 126//13 125//13 124//13 123//13
f 116//12 126//12 123//12 119//12
f 113//11 116//11 119//11 118//11
f 136//12 135//12 129//12 132//12
f 134//10 133//10 131//10 130//10
f 139//13 140//13 136//13 133//13
f 138//10 139//10 133//10 134//10
f 137//11 138//11 134//11 135//11
f 140//12 137//12 135//12 136//12
f 144//12 143//12 137//12 140//12
f 142//10 141//10 139//10 138//10
f 132//17 129//17 130//17 131//17
f 114//16 128//16 127//16 115//16
f 128//10 125//10 134//10 130//10
f 127//18 128//18 130//18 129//18
f 126//12 127//12 129//12 135//12
f 125//15 126//15 135//15 134//15
f 109//16 112//16 111//16 110//16
f 124//10 121//10 142//10 138//10
f 123//16 124//16 138//16 137//16
f 122//12 123//12 137//12 143//12
f 121//15 122//15 143//15 142//15
f 143//12 144//12 146//12 145//12
f 142//11 143//11 145//11 147//11
f 141//10 142//10 147//10 148//10
f 144//13 141//13 148//13 146//13
f 121//10 117//10 149//10 150//10
f 122//13 121//13 150//13 151//13
f 120//12 122//12 151//12 152//12
f 117//11 120//11 152//11 149//11
f 97//13 100//13 154//13 153//13
f 100//10 99//10 155//10 154//10
f 99//11 98//11 156//11 155//11
f 98//12 97//12 153//12 156//12
f 156//12 153//12 157//12 158//12
f 155//11 156//11 158//11 159//11
f 154//10 155//10 159//10 160//10
f 152//12 151//12 163//12 162//12
f 150//10 149//10 161//10 164//10
f 148//10 147//10 167//10 166//10
f 145//12 146//12 165//12 168//12
f 161//15 162//15 163//15 164//15
f 166//15 167//15 168//15 165//15
f 157//15 160//15 159//15 158//15
f 160//15 157//15 162//15 161//15
f 154//10 160//10 161//10 149//10
f 157//12 153//12 152//12 162//12
f 153//16 154//16 149//16 152//16
f 164//15 163//15 168//15 167//15
f 150//10 164//10 167//10 147//10
f 163//12 151//12 145//12 168//12
f 151//16 150//16 147//16 145//16
f 176//12 175//12 169//12 172//12
f 174//10 173//10 171//10 170//10
f 179//13 180//13 176//13 173//13
f 178//10 179//10 173//10 174//10
f 177//11 178//11 174//11 175//11
f 180//12 177//12 175//12 176//12
f 184//12 183//12 177//12 180//12
f 182//10 181//10 179//10 178//10
f 172//16 169//16 170//16 171//16
f 131//10 133//10 174//10 170//10
f 132//16 131//16 170//16 169//16
f 136//12 132//12 169//12 175//12
f 133//15 136//15 175//15 174//15
f 171//13 173//13 176//13 172//13
f 179//13 181//13 184//13 180//13
f 139//10 141//10 182//10 178//10
f 140//16 139//16 178//16 177//16
f 144//12 140//12 177//12 183//12
f 141//15 144//15 183//15 182//15
f 183//12 184//12 186//12 185//12
f 182//11 183//11 185//11 187//11
f 181//10 182//10 187//10 188//10
f 184//13 181//13 188//13 186//13
f 186//13 188//13 190//13 189//13
f 188//10 187//10 191//10 190//10
f 185//12 186//12 189//12 192//12
f 190//15 191//15 192//15 189//15
f 166//15 165//15 192//15 191//15
f 148//10 166//10 191//10 187//10
f 165//12 146//12 185//12 192//12
f 146//16 148//16 187//16 185//16
o glass_wall_h20_2.011_Cube.385
v 11.518518 3.799069 4.875071
v 11.518518 3.655399 4.875071
v 11.630374 3.655399 4.875071
v 11.630375 3.799069 4.875071
v 11.518518 3.799069 4.954912
v 11.630375 3.799069 4.954912
v 11.630374 3.655399 4.954912
v 11.518518 3.655399 4.954912
v 11.518518 3.799069 6.016829
v 11.518518 3.655399 6.016829
v 11.630374 3.655399 6.016829
v 11.630375 3.799069 6.016829
v 11.518518 3.799069 6.111186
v 11.630375 3.799069 6.111186
v 11.630374 3.655399 6.111186
v 11.518518 3.655399 6.111186
v 11.630376 5.158111 6.016829
v 11.630376 5.158111 6.111299
v 11.518520 5.158111 6.111299
v 11.518520 5.158111 6.016829
v 11.630376 5.158111 4.875071
v 11.630376 5.158111 4.954912
v 11.518520 5.158111 4.954912
v 11.518520 5.158111 4.875071
v 11.630376 5.288275 4.875071
v 11.518520 5.288275 4.875071
v 11.518520 5.288275 4.954912
v 11.630376 5.288275 4.954912
v 11.630376 5.288275 6.016829
v 11.518520 5.288275 6.016829
v 11.518520 5.288275 6.111299
v 11.630376 5.288275 6.111299
v 11.518519 6.652678 6.111186
v 11.630375 6.652678 6.111186
v 11.630376 6.796317 6.111242
v 11.518519 6.796317 6.111242
v 11.630376 6.796317 6.016829
v 11.630375 6.652678 6.016829
v 11.518519 6.652678 6.016829
v 11.518519 6.796317 6.016829
v 11.518519 6.652678 4.954912
v 11.630375 6.652678 4.954912
v 11.630376 6.796317 4.954912
v 11.518519 6.796317 4.954912
v 11.630376 6.796317 4.875071
v 11.630375 6.652678 4.875071
v 11.518519 6.652678 4.875071
v 11.518519 6.796317 4.875071
v 11.518519 6.652678 3.973593
v 11.518519 6.796317 3.973593
v 11.630375 6.652678 3.973593
v 11.630376 6.796317 3.973593
v 11.630376 5.158111 3.973593
v 11.630376 5.288275 3.973593
v 11.518520 5.288275 3.973593
v 11.518520 5.158111 3.973593
v 11.518518 3.799069 3.973593
v 11.630375 3.799069 3.973593
v 11.630374 3.655399 3.973593
v 11.518518 3.655399 3.973593
v 11.518518 3.799069 3.891640
v 11.518518 3.655399 3.891640
v 11.630374 3.655399 3.891640
v 11.630375 3.799069 3.891640
v 11.630376 5.158111 3.891640
v 11.518520 5.158111 3.891640
v 11.518520 5.288275 3.891640
v 11.630376 5.288275 3.891640
v 11.518519 6.796317 3.891640
v 11.630376 6.796317 3.891640
v 11.630375 6.652678 3.891640
v 11.518519 6.652678 3.891640
v 11.518519 8.160689 6.111186
v 11.630375 8.160689 6.111186
v 11.630375 8.304359 6.111186
v 11.518519 8.304359 6.111186
v 11.630375 8.304359 6.016829
v 11.630375 8.160689 6.016829
v 11.518519 8.160689 6.016829
v 11.518519 8.304359 6.016829
v 11.518519 8.160689 4.954912
v 11.630375 8.160689 4.954912
v 11.630375 8.304359 4.954912
v 11.518519 8.304359 4.954912
v 11.630375 8.304359 4.875071
v 11.630375 8.160689 4.875071
v 11.518519 8.160689 4.875071
v 11.518519 8.304359 4.875071
v 11.518519 8.160689 3.973593
v 11.518519 8.304359 3.973593
v 11.630375 8.160689 3.973593
v 11.630375 8.304359 3.973593
v 11.518519 8.304359 3.891640
v 11.630375 8.304359 3.891640
v 11.630375 8.160689 3.891640
v 11.518519 8.160689 3.891640
vn 1.0000 -0.0000 0.0000
vn 0.0000 -1.0000 0.0000
vn -1.0000 0.0000 0.0000
vn 0.0000 1.0000 0.0000
vn 0.0000 -0.0001 1.0000
vn 0.0000 0.0000 -1.0000
vn 0.0000 0.0000 1.0000
vn 0.0000 -0.0004 1.0000
vn 0.0000 0.0001 1.0000
usemtl M_glass_frame_black_glossy
s off
f 195//19 196//19 198//19 199//19
f 194//20 195//20 199//20 200//20
f 193//21 194//21 200//21 197//21
f 197//21 200//21 202//21 201//21
f 200//20 199//20 203//20 202//20
f 199//19 198//19 204//19 203//19
f 198//22 197//22 201//22 204//22
f 203//19 204//19 206//19 207//19
f 202//20 203//20 207//20 208//20
f 201//21 202//21 208//21 205//21
f 206//19 204//19 209//19 210//19
f 205//23 206//23 210//23 211//23
f 201//21 205//21 211//21 212//21
f 204//24 201//24 212//24 209//24
f 198//19 196//19 213//19 214//19
f 197//25 198//25 214//25 215//25
f 193//21 197//21 215//21 216//21
f 196//24 193//24 216//24 213//24
f 216//21 215//21 219//21 218//21
f 214//19 213//19 217//19 220//19
f 212//21 211//21 223//21 222//21
f 210//19 209//19 221//19 224//19
f 221//19 209//19 214//19 220//19
f 222//22 221//22 220//22 219//22
f 212//21 222//21 219//21 215//21
f 209//20 212//20 215//20 214//20
f 232//21 231//21 225//21 228//21
f 230//19 229//19 227//19 226//19
f 235//22 236//22 232//22 229//22
f 234//19 235//19 229//19 230//19
f 233//20 234//20 230//20 231//20
f 236//21 233//21 231//21 232//21
f 240//21 239//21 233//21 236//21
f 238//19 237//19 235//19 234//19
f 228//26 225//26 226//26 227//26
f 210//25 224//25 223//25 211//25
f 224//19 221//19 230//19 226//19
f 223//27 224//27 226//27 225//27
f 222//21 223//21 225//21 231//21
f 221//24 222//24 231//24 230//24
f 205//25 208//25 207//25 206//25
f 220//19 217//19 238//19 234//19
f 219//25 220//25 234//25 233//25
f 218//21 219//21 233//21 239//21
f 217//24 218//24 239//24 238//24
f 239//21 240//21 242//21 241//21
f 238//20 239//20 241//20 243//20
f 237//19 238//19 243//19 244//19
f 240//22 237//22 244//22 242//22
f 217//19 213//19 245//19 246//19
f 218//22 217//22 246//22 247//22
f 216//21 218//21 247//21 248//21
f 213//20 216//20 248//20 245//20
f 193//22 196//22 250//22 249//22
f 196//19 195//19 251//19 250//19
f 195//20 194//20 252//20 251//20
f 194//21 193//21 249//21 252//21
f 252//21 249//21 253//21 254//21
f 251//20 252//20 254//20 255//20
f 250//19 251//19 255//19 256//19
f 248//21 247//21 259//21 258//21
f 246//19 245//19 257//19 260//19
f 244//19 243//19 263//19 262//19
f 241//21 242//21 261//21 264//21
f 257//24 258//24 259//24 260//24
f 262//24 263//24 264//24 261//24
f 253//24 256//24 255//24 254//24
f 256//24 253//24 258//24 257//24
f 250//19 256//19 257//19 245//19
f 253//21 249//21 248//21 258//21
f 249//25 250//25 245//25 248//25
f 260//24 259//24 264//24 263//24
f 246//19 260//19 263//19 243//19
f 259//21 247//21 241//21 264//21
f 247//25 246//25 243//25 241//25
f 272//21 271//21 265//21 268//21
f 270//19 269//19 267//19 266//19
f 275//22 276//22 272//22 269//22
f 274//19 275//19 269//19 270//19
f 273//20 274//20 270//20 271//20
f 276//21 273//21 271//21 272//21
f 280//21 279//21 273//21 276//21
f 278//19 277//19 275//19 274//19
f 268//25 265//25 266//25 267//25
f 227//19 229//19 270//19 266//19
f 228//25 227//25 266//25 265//25
f 232//21 228//21 265//21 271//21
f 229//24 232//24 271//24 270//24
f 267//22 269//22 272//22 268//22
f 275//22 277//22 280//22 276//22
f 235//19 237//19 278//19 274//19
f 236//25 235//25 274//25 273//25
f 240//21 236//21 273//21 279//21
f 237//24 240//24 279//24 278//24
f 279//21 280//21 282//21 281//21
f 278//20 279//20 281//20 283//20
f 277//19 278//19 283//19 284//19
f 280//22 277//22 284//22 282//22
f 282//22 284//22 286//22 285//22
f 284//19 283//19 287//19 286//19
f 281//21 282//21 285//21 288//21
f 286//24 287//24 288//24 285//24
f 262//24 261//24 288//24 287//24
f 244//19 262//19 287//19 283//19
f 261//21 242//21 281//21 288//21
f 242//25 244//25 283//25 281//25
o glass_wall_h20_2.012_Cube.388
v 11.626905 3.196442 4.879218
v 11.626905 3.338313 4.879218
v 11.515049 3.338313 4.879218
v 11.515049 3.196442 4.879218
v 11.626905 3.196442 4.959059
v 11.515049 3.196442 4.959059
v 11.515049 3.338313 4.959059
v 11.626905 3.338313 4.959059
v 11.626905 3.196442 6.020976
v 11.626905 3.338313 6.020976
v 11.515049 3.338313 6.020976
v 11.515049 3.196442 6.020976
v 11.626905 3.196442 6.115334
v 11.515049 3.196442 6.115334
v 11.515049 3.338313 6.115334
v 11.626905 3.338313 6.115334
v 11.515048 1.854420 6.020976
v 11.515048 1.854420 6.115445
v 11.626904 1.854420 6.115445
v 11.626904 1.854420 6.020976
v 11.515048 1.854420 4.879218
v 11.515048 1.854420 4.959059
v 11.626904 1.854420 4.959059
v 11.626904 1.854420 4.879218
v 11.515048 1.725885 4.879218
v 11.626904 1.725885 4.879218
v 11.626904 1.725885 4.959059
v 11.515048 1.725885 4.959059
v 11.515048 1.725885 6.020976
v 11.626904 1.725885 6.020976
v 11.626904 1.725885 6.115445
v 11.515048 1.725885 6.115445
v 11.626905 0.378569 6.115334
v 11.515050 0.378569 6.115334
v 11.515049 0.236698 6.115334
v 11.626905 0.236698 6.115334
v 11.515049 0.236698 6.020976
v 11.515050 0.378569 6.020976
v 11.626905 0.378569 6.020976
v 11.626905 0.236698 6.020976
v 11.626905 0.378569 4.959059
v 11.515050 0.378569 4.959059
v 11.515049 0.236698 4.959059
v 11.626905 0.236698 4.959059
v 11.515049 0.236698 4.879218
v 11.515050 0.378569 4.879218
v 11.626905 0.378569 4.879218
v 11.626905 0.236698 4.879218
v 11.626905 0.378569 3.977740
v 11.626905 0.236698 3.977740
v 11.515050 0.378569 3.977740
v 11.515049 0.236698 3.977740
v 11.515048 1.854420 3.977740
v 11.515048 1.725885 3.977740
v 11.626904 1.725885 3.977740
v 11.626904 1.854420 3.977740
v 11.626905 3.196442 3.977740
v 11.515049 3.196442 3.977740
v 11.515049 3.338313 3.977740
v 11.626905 3.338313 3.977740
v 11.626905 3.196442 3.895787
v 11.626905 3.338313 3.895787
v 11.515049 3.338313 3.895787
v 11.515049 3.196442 3.895787
v 11.515048 1.854420 3.895787
v 11.626904 1.854420 3.895787
v 11.626904 1.725885 3.895787
v 11.515048 1.725885 3.895787
v 11.626905 0.236698 3.895787
v 11.515049 0.236698 3.895787
v 11.515050 0.378569 3.895787
v 11.626905 0.378569 3.895787
vn -1.0000 0.0000 0.0000
vn 0.0000 1.0000 0.0000
vn 1.0000 0.0000 0.0000
vn 0.0000 -1.0000 0.0000
vn 0.0000 0.0001 1.0000
vn 0.0000 0.0000 -1.0000
vn 0.0000 0.0000 1.0000
vn 0.0000 -0.0001 1.0000
usemtl M_glass_frame_black_glossy
s off
f 291//28 292//28 294//28 295//28
f 290//29 291//29 295//29 296//29
f 289//30 290//30 296//30 293//30
f 293//30 296//30 298//30 297//30
f 296//29 295//29 299//29 298//29
f 295//28 294//28 300//28 299//28
f 294//31 293//31 297//31 300//31
f 299//28 300//28 302//28 303//28
f 298//29 299//29 303//29 304//29
f 297//30 298//30 304//30 301//30
f 302//28 300//28 305//28 306//28
f 301//32 302//32 306//32 307//32
f 297//30 301//30 307//30 308//30
f 300//33 297//33 308//33 305//33
f 294//28 292//28 309//28 310//28
f 293//34 294//34 310//34 311//34
f 289//30 293//30 311//30 312//30
f 292//33 289//33 312//33 309//33
f 312//30 311//30 315//30 314//30
f 310//28 309//28 313//28 316//28
f 308//30 307//30 319//30 318//30
f 306//28 305//28 317//28 320//28
f 317//28 305//28 310//28 316//28
f 318//31 317//31 316//31 315//31
f 308//30 318//30 315//30 311//30
f 305//29 308//29 311//29 310//29
f 328//30 327//30 321//30 324//30
f 326//28 325//28 323//28 322//28
f 331//31 332//31 328//31 325//31
f 330//28 331//28 325//28 326//28
f 329//29 330//29 326//29 327//29
f 332//30 329//30 327//30 328//30
f 336//30 335//30 329//30 332//30
f 334//28 333//28 331//28 330//28
f 324//34 321//34 322//34 323//34
f 301//34 304//34 303//34 302//34
f 320//28 317//28 326//28 322//28
f 319//35 320//35 322//35 321//35
f 318//30 319//30 321//30 327//30
f 317//33 318//33 327//33 326//33
f 306//34 320//34 319//34 307//34
f 323//31 325//31 328//31 324//31
f 331//31 333//31 336//31 332//31
f 316//28 313//28 334//28 330//28
f 315//34 316//34 330//34 329//34
f 314//30 315//30 329//30 335//30
f 313//33 314//33 335//33 334//33
f 335//30 336//30 338//30 337//30
f 334//29 335//29 337//29 339//29
f 333//28 334//28 339//28 340//28
f 336//31 333//31 340//31 338//31
f 313//28 309//28 341//28 342//28
f 314//31 313//31 342//31 343//31
f 312//30 314//30 343//30 344//30
f 309//29 312//29 344//29 341//29
f 289//31 292//31 346//31 345//31
f 292//28 291//28 347//28 346//28
f 291//29 290//29 348//29 347//29
f 290//30 289//30 345//30 348//30
f 348//30 345//30 349//30 350//30
f 347//29 348//29 350//29 351//29
f 346//28 347//28 351//28 352//28
f 344//30 343//30 355//30 354//30
f 342//28 341//28 353//28 356//28
f 338//31 340//31 358//31 357//31
f 340//28 339//28 359//28 358//28
f 337//30 338//30 357//30 360//30
f 353//33 354//33 355//33 356//33
f 358//33 359//33 360//33 357//33
f 349//33 352//33 351//33 350//33
f 352//33 349//33 354//33 353//33
f 346//28 352//28 353//28 341//28
f 349//30 345//30 344//30 354//30
f 345//34 346//34 341//34 344//34
f 356//33 355//33 360//33 359//33
f 342//28 356//28 359//28 339//28
f 355//30 343//30 337//30 360//30
f 343//34 342//34 339//34 337//34
