# Blender v2.76 (sub 0) OBJ File: 'window_h20_2.blend'
# www.blender.org
mtllib glass_wall_h20_2.mtl
o glass_wall_h20_2_Cube.002
v 2.233831 -0.439010 0.052308
v 2.338479 -0.439010 0.052308
v 2.338479 -0.439010 -0.059548
v 2.233831 -0.439010 -0.059548
v 2.233831 -0.359169 0.052308
v 2.233831 -0.359169 -0.059548
v 2.338479 -0.359169 -0.059548
v 2.338479 -0.359169 0.052308
v 2.233831 0.702748 0.052308
v 2.338479 0.702748 0.052308
v 2.338479 0.702748 -0.059548
v 2.233831 0.702748 -0.059548
v 2.233831 0.797106 0.052308
v 2.233831 0.797106 -0.059548
v 2.338479 0.797106 -0.059548
v 2.338479 0.797106 0.052308
v 2.338479 0.987131 0.052308
v 2.233831 0.987131 0.052308
v 2.338479 0.987131 -0.059548
v 2.233831 0.987131 -0.059548
v 2.233831 1.087504 -0.059548
v 2.233831 1.087504 0.052308
v 2.338479 1.087504 -0.059548
v 2.338479 1.087504 0.052308
v 1.243916 0.987131 -0.059549
v 1.243916 1.087504 -0.059549
v 1.243916 1.087504 0.052307
v 1.243916 0.987131 0.052307
v 1.243916 0.702748 -0.059549
v 1.243916 0.797218 -0.059549
v 1.243916 0.797218 0.052307
v 1.243916 0.702748 0.052307
v 1.243916 -0.439010 -0.059549
v 1.243916 -0.359169 -0.059549
v 1.243916 -0.359169 0.052307
v 1.243916 -0.439010 0.052307
v 1.149105 -0.439010 -0.059549
v 1.149105 -0.439010 0.052307
v 1.149105 -0.359169 0.052307
v 1.149105 -0.359169 -0.059549
v 1.149105 0.702748 -0.059549
v 1.149105 0.702748 0.052307
v 1.149105 0.797218 0.052307
v 1.149105 0.797218 -0.059549
v 1.149105 0.987131 -0.059549
v 1.149105 0.987131 0.052307
v 1.149105 1.087504 0.052307
v 1.149105 1.087504 -0.059549
v 0.155285 1.087504 0.052308
v 0.155285 1.087504 -0.059548
v 0.050637 1.087504 0.052308
v 0.050637 1.087504 -0.059548
v 0.050637 0.987131 -0.059548
v 0.155285 0.987131 -0.059548
v 0.050637 0.987131 0.052308
v 0.155285 0.987131 0.052308
v 0.155286 0.797106 0.052308
v 0.155286 0.797106 -0.059548
v 0.050637 0.797106 -0.059548
v 0.050637 0.797106 0.052308
v 0.050637 0.702748 -0.059548
v 0.155286 0.702748 -0.059548
v 0.155286 0.702748 0.052308
v 0.050637 0.702748 0.052308
v 0.155286 -0.359169 0.052308
v 0.155286 -0.359169 -0.059548
v 0.050637 -0.359169 -0.059548
v 0.050637 -0.359169 0.052308
v 0.050637 -0.439010 -0.059548
v 0.155286 -0.439010 -0.059548
v 0.155286 -0.439010 0.052308
v 0.050637 -0.439010 0.052308
v 0.155286 -1.340488 0.052308
v 0.050637 -1.340488 0.052308
v 0.155286 -1.340488 -0.059548
v 0.050637 -1.340488 -0.059548
v 1.243916 -1.340488 -0.059549
v 1.149105 -1.340488 -0.059549
v 1.149105 -1.340488 0.052307
v 1.243916 -1.340488 0.052307
v 2.233831 -1.340488 0.052308
v 2.233831 -1.340488 -0.059548
v 2.338479 -1.340488 -0.059548
v 2.338479 -1.340488 0.052308
v 2.233831 -1.422441 0.052308
v 2.338479 -1.422441 0.052308
v 2.338479 -1.422441 -0.059548
v 2.233831 -1.422441 -0.059548
v 1.243916 -1.422441 -0.059549
v 1.243916 -1.422441 0.052307
v 1.149105 -1.422441 0.052307
v 1.149105 -1.422441 -0.059549
v 0.050637 -1.422441 0.052308
v 0.050637 -1.422441 -0.059548
v 0.155286 -1.422441 -0.059548
v 0.155286 -1.422441 0.052308
v -0.255040 -1.424944 0.059549
v -0.255040 -1.424944 -0.052307
v -0.143184 -1.424944 -0.052307
v -0.143184 -1.424944 0.059549
v -0.255040 -1.364821 0.059549
v -0.255040 -1.364821 -0.052307
v -0.143184 -1.364821 -0.052307
v -0.143184 -1.364821 0.059549
v -0.255040 -0.439010 0.059549
v -0.143184 -0.439010 0.059549
v -0.143184 -0.439010 -0.052307
v -0.255040 -0.439010 -0.052307
v -0.255040 -0.359169 0.059549
v -0.255040 -0.359169 -0.052307
v -0.143184 -0.359169 -0.052307
v -0.143184 -0.359169 0.059549
v -0.255040 0.702748 0.059549
v -0.143184 0.702748 0.059549
v -0.143184 0.702748 -0.052307
v -0.255040 0.702748 -0.052307
v -0.255040 0.797106 0.059549
v -0.255040 0.797106 -0.052307
v -0.143184 0.797106 -0.052307
v -0.143184 0.797106 0.059549
v -0.143184 0.987131 0.059549
v -0.255040 0.987131 0.059549
v -0.143184 0.987131 -0.052307
v -0.255040 0.987131 -0.052307
v -0.255040 1.087504 -0.052307
v -0.255040 1.087504 0.059549
v -0.143184 1.087504 -0.052307
v -0.143184 1.087504 0.059549
v -0.893170 0.987131 -0.052308
v -0.893170 1.087504 -0.052308
v -0.893170 1.087504 0.059548
v -0.893170 0.987131 0.059548
v -0.893171 0.702748 -0.052308
v -0.893171 0.797218 -0.052308
v -0.893171 0.797218 0.059548
v -0.893171 0.702748 0.059548
v -0.893171 -0.439010 -0.052308
v -0.893171 -0.359169 -0.052308
v -0.893171 -0.359169 0.059548
v -0.893171 -0.439010 0.059548
v -0.893170 -1.424944 0.059548
v -0.893170 -1.364821 0.059548
v -0.893170 -1.424944 -0.052308
v -0.893170 -1.364821 -0.052308
v -0.994512 -1.424944 0.059548
v -0.994512 -1.424944 -0.052308
v -0.994512 -1.364821 0.059548
v -0.994512 -1.364821 -0.052308
v -0.994511 -0.439010 -0.052308
v -0.994511 -0.439010 0.059548
v -0.994511 -0.359169 0.059548
v -0.994511 -0.359169 -0.052308
v -0.994511 0.702748 -0.052308
v -0.994511 0.702748 0.059548
v -0.994511 0.797218 0.059548
v -0.994511 0.797218 -0.052308
v -0.994512 0.987131 -0.052308
v -0.994512 0.987131 0.059548
v -0.994512 1.087504 0.059548
v -0.994512 1.087504 -0.052308
v -2.386746 1.087504 0.059549
v -2.386746 1.087504 -0.052307
v -2.498602 1.087504 0.059549
v -2.498602 1.087504 -0.052307
v -2.498602 0.987131 -0.052307
v -2.386746 0.987131 -0.052307
v -2.498602 0.987131 0.059549
v -2.386746 0.987131 0.059549
v -2.386746 0.797106 0.059549
v -2.386746 0.797106 -0.052307
v -2.498601 0.797106 -0.052307
v -2.498601 0.797106 0.059549
v -2.498601 0.702748 -0.052307
v -2.386746 0.702748 -0.052307
v -2.386746 0.702748 0.059549
v -2.498601 0.702748 0.059549
v -2.386746 -0.359169 0.059549
v -2.386746 -0.359169 -0.052307
v -2.498601 -0.359169 -0.052307
v -2.498601 -0.359169 0.059549
v -2.498601 -0.439010 -0.052307
v -2.386746 -0.439010 -0.052307
v -2.386746 -0.439010 0.059549
v -2.498601 -0.439010 0.059549
v -2.386745 -1.364821 0.059549
v -2.386745 -1.364821 -0.052307
v -2.498602 -1.364821 -0.052307
v -2.498602 -1.364821 0.059549
v -2.386745 -1.424944 0.059549
v -2.386745 -1.424944 -0.052307
v -2.498602 -1.424944 -0.052307
v -2.498602 -1.424944 0.059549
vn 0.000000 0.000000 -1.000000
vn 1.000000 0.000000 0.000000
vn -0.000000 0.000000 1.000000
vn -1.000000 0.000000 0.000000
vn 0.000000 1.000000 0.000000
vn 0.000000 -1.000000 0.000000
vn 0.000100 1.000000 0.000000
vn -0.000100 1.000000 0.000000
vn 0.000200 1.000000 0.000000
usemtl floor_lino_grey_dark.003
s off
f 3//1 4//1 6//1 7//1
f 2//2 3//2 7//2 8//2
f 1//3 2//3 8//3 5//3
f 5//3 8//3 10//3 9//3
f 8//2 7//2 11//2 10//2
f 7//1 6//1 12//1 11//1
f 6//4 5//4 9//4 12//4
f 11//1 12//1 14//1 15//1
f 10//2 11//2 15//2 16//2
f 9//3 10//3 16//3 13//3
f 13//3 16//3 17//3 18//3
f 16//2 15//2 19//2 17//2
f 15//1 14//1 20//1 19//1
f 14//4 13//4 18//4 20//4
f 19//1 20//1 21//1 23//1
f 17//2 19//2 23//2 24//2
f 18//3 17//3 24//3 22//3
f 22//5 24//5 23//5 21//5
f 21//1 20//1 25//1 26//1
f 22//5 21//5 26//5 27//5
f 18//3 22//3 27//3 28//3
f 20//6 18//6 28//6 25//6
f 14//1 12//1 29//1 30//1
f 13//7 14//7 30//7 31//7
f 9//3 13//3 31//3 32//3
f 12//6 9//6 32//6 29//6
f 6//1 4//1 33//1 34//1
f 5//5 6//5 34//5 35//5
f 1//3 5//3 35//3 36//3
f 4//6 1//6 36//6 33//6
f 36//3 35//3 39//3 38//3
f 34//1 33//1 37//1 40//1
f 32//3 31//3 43//3 42//3
f 30//1 29//1 41//1 44//1
f 28//3 27//3 47//3 46//3
f 27//5 26//5 48//5 47//5
f 26//1 25//1 45//1 48//1
f 45//1 25//1 30//1 44//1
f 46//4 45//4 44//4 43//4
f 28//3 46//3 43//3 31//3
f 25//2 28//2 31//2 30//2
f 41//1 29//1 34//1 40//1
f 42//4 41//4 40//4 39//4
f 32//3 42//3 39//3 35//3
f 29//2 32//2 35//2 34//2
f 51//5 49//5 50//5 52//5
f 55//3 56//3 49//3 51//3
f 54//1 53//1 52//1 50//1
f 59//4 60//4 55//4 53//4
f 58//1 59//1 53//1 54//1
f 57//2 58//2 54//2 56//2
f 60//3 57//3 56//3 55//3
f 64//3 63//3 57//3 60//3
f 62//1 61//1 59//1 58//1
f 67//4 68//4 64//4 61//4
f 66//1 67//1 61//1 62//1
f 65//2 66//2 62//2 63//2
f 68//3 65//3 63//3 64//3
f 72//3 71//3 65//3 68//3
f 70//1 69//1 67//1 66//1
f 48//1 45//1 54//1 50//1
f 47//5 48//5 50//5 49//5
f 46//3 47//3 49//3 56//3
f 45//6 46//6 56//6 54//6
f 44//1 41//1 62//1 58//1
f 43//8 44//8 58//8 57//8
f 42//3 43//3 57//3 63//3
f 41//6 42//6 63//6 62//6
f 52//4 53//4 55//4 51//4
f 59//4 61//4 64//4 60//4
f 67//4 69//4 72//4 68//4
f 40//1 37//1 70//1 66//1
f 39//5 40//5 66//5 65//5
f 38//3 39//3 65//3 71//3
f 37//6 38//6 71//6 70//6
f 71//3 72//3 74//3 73//3
f 70//2 71//2 73//2 75//2
f 69//1 70//1 75//1 76//1
f 72//4 69//4 76//4 74//4
f 37//1 33//1 77//1 78//1
f 38//4 37//4 78//4 79//4
f 36//3 38//3 79//3 80//3
f 33//2 36//2 80//2 77//2
f 1//4 4//4 82//4 81//4
f 4//1 3//1 83//1 82//1
f 3//2 2//2 84//2 83//2
f 2//3 1//3 81//3 84//3
f 84//3 81//3 85//3 86//3
f 83//2 84//2 86//2 87//2
f 82//1 83//1 87//1 88//1
f 80//3 79//3 91//3 90//3
f 78//1 77//1 89//1 92//1
f 74//4 76//4 94//4 93//4
f 76//1 75//1 95//1 94//1
f 73//3 74//3 93//3 96//3
f 89//6 90//6 91//6 92//6
f 94//6 95//6 96//6 93//6
f 85//6 88//6 87//6 86//6
f 88//6 85//6 90//6 89//6
f 82//1 88//1 89//1 77//1
f 85//3 81//3 80//3 90//3
f 81//5 82//5 77//5 80//5
f 92//6 91//6 96//6 95//6
f 78//1 92//1 95//1 75//1
f 91//3 79//3 73//3 96//3
f 79//5 78//5 75//5 73//5
usemtl floor_lino_grey_dark.004
f 97//6 98//6 99//6 100//6
f 98//1 102//1 103//1 99//1
f 99//2 103//2 104//2 100//2
f 101//3 97//3 100//3 104//3
f 101//3 104//3 106//3 105//3
f 104//2 103//2 107//2 106//2
f 103//1 102//1 108//1 107//1
f 102//4 101//4 105//4 108//4
f 107//1 108//1 110//1 111//1
f 106//2 107//2 111//2 112//2
f 105//3 106//3 112//3 109//3
f 109//3 112//3 114//3 113//3
f 112//2 111//2 115//2 114//2
f 111//1 110//1 116//1 115//1
f 110//4 109//4 113//4 116//4
f 115//1 116//1 118//1 119//1
f 114//2 115//2 119//2 120//2
f 113//3 114//3 120//3 117//3
f 117//3 120//3 121//3 122//3
f 120//2 119//2 123//2 121//2
f 119//1 118//1 124//1 123//1
f 118//4 117//4 122//4 124//4
f 123//1 124//1 125//1 127//1
f 121//2 123//2 127//2 128//2
f 122//3 121//3 128//3 126//3
f 126//5 128//5 127//5 125//5
f 125//1 124//1 129//1 130//1
f 126//5 125//5 130//5 131//5
f 122//3 126//3 131//3 132//3
f 124//6 122//6 132//6 129//6
f 118//1 116//1 133//1 134//1
f 117//9 118//9 134//9 135//9
f 113//3 117//3 135//3 136//3
f 116//6 113//6 136//6 133//6
f 110//1 108//1 137//1 138//1
f 109//5 110//5 138//5 139//5
f 105//3 109//3 139//3 140//3
f 108//6 105//6 140//6 137//6
f 97//3 101//3 142//3 141//3
f 102//1 98//1 143//1 144//1
f 101//5 102//5 144//5 142//5
f 98//6 97//6 141//6 143//6
f 143//6 141//6 145//6 146//6
f 144//1 143//1 146//1 148//1
f 141//3 142//3 147//3 145//3
f 140//3 139//3 151//3 150//3
f 138//1 137//1 149//1 152//1
f 136//3 135//3 155//3 154//3
f 134//1 133//1 153//1 156//1
f 132//3 131//3 159//3 158//3
f 131//5 130//5 160//5 159//5
f 130//1 129//1 157//1 160//1
f 145//4 147//4 148//4 146//4
f 149//4 150//4 151//4 152//4
f 157//1 129//1 134//1 156//1
f 158//4 157//4 156//4 155//4
f 132//3 158//3 155//3 135//3
f 129//2 132//2 135//2 134//2
f 153//1 133//1 138//1 152//1
f 154//4 153//4 152//4 151//4
f 136//3 154//3 151//3 139//3
f 133//2 136//2 139//2 138//2
f 149//1 137//1 144//1 148//1
f 150//4 149//4 148//4 147//4
f 140//3 150//3 147//3 142//3
f 137//2 140//2 142//2 144//2
f 163//5 161//5 162//5 164//5
f 167//3 168//3 161//3 163//3
f 166//1 165//1 164//1 162//1
f 171//4 172//4 167//4 165//4
f 170//1 171//1 165//1 166//1
f 169//2 170//2 166//2 168//2
f 172//3 169//3 168//3 167//3
f 176//3 175//3 169//3 172//3
f 174//1 173//1 171//1 170//1
f 179//4 180//4 176//4 173//4
f 178//1 179//1 173//1 174//1
f 177//2 178//2 174//2 175//2
f 180//3 177//3 175//3 176//3
f 184//3 183//3 177//3 180//3
f 183//2 182//2 178//2 177//2
f 182//1 181//1 179//1 178//1
f 187//4 188//4 184//4 181//4
f 186//1 187//1 181//1 182//1
f 185//2 186//2 182//2 183//2
f 188//3 185//3 183//3 184//3
f 188//3 192//3 189//3 185//3
f 190//2 186//2 185//2 189//2
f 191//1 187//1 186//1 190//1
f 192//6 191//6 190//6 189//6
f 160//1 157//1 166//1 162//1
f 159//5 160//5 162//5 161//5
f 158//3 159//3 161//3 168//3
f 157//6 158//6 168//6 166//6
f 156//1 153//1 174//1 170//1
f 155//8 156//8 170//8 169//8
f 154//3 155//3 169//3 175//3
f 153//6 154//6 175//6 174//6
f 164//4 165//4 167//4 163//4
f 171//4 173//4 176//4 172//4
f 179//4 181//4 184//4 180//4
f 188//4 187//4 191//4 192//4
