# Blender v2.76 (sub 0) OBJ File: 'window_h20.blend'
# www.blender.org
mtllib window_h20.mtl
o window_h20_Cube.037
v -0.055928 -1.701908 -1.255929
v 0.055928 -1.701908 -1.255929
v 0.055928 -1.701908 -1.144073
v -0.055928 -1.701908 -1.144073
v -0.055928 -1.641785 -1.255929
v 0.055928 -1.641785 -1.255929
v 0.055928 -1.641785 -1.144073
v -0.055928 -1.641785 -1.144073
v -0.055928 -0.715974 -1.255929
v -0.055928 -0.715974 -1.144073
v 0.055928 -0.715974 -1.144073
v 0.055928 -0.715974 -1.255929
v -0.055928 -0.636133 -1.255929
v 0.055928 -0.636133 -1.255929
v 0.055928 -0.636133 -1.144073
v -0.055928 -0.636133 -1.144073
v -0.055928 0.425784 -1.255929
v -0.055928 0.425784 -1.144073
v 0.055928 0.425784 -1.144073
v 0.055928 0.425784 -1.255929
v -0.055928 0.520141 -1.255929
v 0.055928 0.520141 -1.255929
v 0.055928 0.520141 -1.144073
v -0.055928 0.520141 -1.144073
v -0.055928 0.710167 -1.144073
v -0.055928 0.710167 -1.255929
v 0.055928 0.710167 -1.144073
v 0.055928 0.710167 -1.255929
v 0.055928 0.810540 -1.255929
v -0.055928 0.810540 -1.255929
v 0.055928 0.810540 -1.144073
v -0.055928 0.810540 -1.144073
v 0.055929 0.710167 -1.894060
v 0.055929 0.810540 -1.894060
v -0.055927 0.810540 -1.894060
v -0.055927 0.710167 -1.894060
v 0.055929 0.425784 -1.894060
v 0.055929 0.520254 -1.894060
v -0.055927 0.520254 -1.894060
v -0.055927 0.425784 -1.894060
v 0.055929 -0.715974 -1.894060
v 0.055929 -0.636133 -1.894060
v -0.055927 -0.636133 -1.894060
v -0.055927 -0.715974 -1.894060
v -0.055927 -1.701908 -1.894060
v -0.055927 -1.641785 -1.894060
v 0.055929 -1.701908 -1.894060
v 0.055929 -1.641785 -1.894060
v -0.055927 -1.701908 -1.995401
v 0.055929 -1.701908 -1.995401
v -0.055927 -1.641785 -1.995401
v 0.055929 -1.641785 -1.995401
v 0.055929 -0.715974 -1.995401
v -0.055927 -0.715974 -1.995401
v -0.055927 -0.636133 -1.995401
v 0.055929 -0.636133 -1.995401
v 0.055929 0.425784 -1.995401
v -0.055927 0.425784 -1.995401
v -0.055927 0.520254 -1.995401
v 0.055929 0.520254 -1.995401
v 0.055929 0.710167 -1.995401
v -0.055927 0.710167 -1.995401
v -0.055927 0.810540 -1.995401
v 0.055929 0.810540 -1.995401
v -0.055928 0.810540 -3.387636
v 0.055928 0.810540 -3.387636
v -0.055928 0.810540 -3.499491
v 0.055928 0.810540 -3.499491
v 0.055928 0.710167 -3.499491
v 0.055928 0.710167 -3.387636
v -0.055928 0.710167 -3.499491
v -0.055928 0.710167 -3.387636
v -0.055928 0.520141 -3.387635
v 0.055928 0.520141 -3.387635
v 0.055928 0.520141 -3.499491
v -0.055928 0.520141 -3.499491
v 0.055928 0.425784 -3.499491
v 0.055928 0.425784 -3.387635
v -0.055928 0.425784 -3.387635
v -0.055928 0.425784 -3.499491
v -0.055928 -0.636133 -3.387635
v 0.055928 -0.636133 -3.387635
v 0.055928 -0.636133 -3.499491
v -0.055928 -0.636133 -3.499491
v 0.055928 -0.715974 -3.499491
v 0.055928 -0.715974 -3.387635
v -0.055928 -0.715974 -3.387635
v -0.055928 -0.715974 -3.499491
v -0.055928 -1.641785 -3.387635
v 0.055928 -1.641785 -3.387635
v 0.055928 -1.641785 -3.499491
v -0.055928 -1.641785 -3.499491
v -0.055928 -1.701908 -3.387635
v 0.055928 -1.701908 -3.387635
v 0.055928 -1.701908 -3.499491
v -0.055928 -1.701908 -3.499491
v -0.055928 -0.715974 1.239629
v -0.055928 -0.715974 1.344277
v 0.055928 -0.715974 1.344277
v 0.055928 -0.715974 1.239629
v -0.055928 -0.636133 1.239629
v 0.055928 -0.636133 1.239629
v 0.055928 -0.636133 1.344277
v -0.055928 -0.636133 1.344277
v -0.055928 0.425784 1.239629
v -0.055928 0.425784 1.344277
v 0.055928 0.425784 1.344277
v 0.055928 0.425784 1.239629
v -0.055928 0.520141 1.239629
v 0.055928 0.520141 1.239629
v 0.055928 0.520141 1.344277
v -0.055928 0.520141 1.344277
v -0.055928 0.710167 1.344277
v -0.055928 0.710167 1.239629
v 0.055928 0.710167 1.344277
v 0.055928 0.710167 1.239629
v 0.055928 0.810540 1.239629
v -0.055928 0.810540 1.239629
v 0.055928 0.810540 1.344277
v -0.055928 0.810540 1.344277
v 0.055929 0.710167 0.249714
v 0.055929 0.810540 0.249714
v -0.055927 0.810540 0.249714
v -0.055927 0.710167 0.249714
v 0.055929 0.425784 0.249714
v 0.055929 0.520253 0.249714
v -0.055927 0.520253 0.249714
v -0.055927 0.425784 0.249714
v 0.055929 -0.715974 0.249714
v 0.055929 -0.636133 0.249714
v -0.055927 -0.636133 0.249714
v -0.055927 -0.715974 0.249714
v 0.055929 -0.715974 0.154903
v -0.055927 -0.715974 0.154903
v -0.055927 -0.636133 0.154903
v 0.055929 -0.636133 0.154903
v 0.055929 0.425784 0.154903
v -0.055927 0.425784 0.154903
v -0.055927 0.520253 0.154903
v 0.055929 0.520253 0.154903
v 0.055929 0.710167 0.154903
v -0.055927 0.710167 0.154903
v -0.055927 0.810540 0.154903
v 0.055929 0.810540 0.154903
v -0.055928 0.810540 -0.838917
v 0.055928 0.810540 -0.838917
v -0.055928 0.810540 -0.943565
v 0.055928 0.810540 -0.943565
v 0.055928 0.710167 -0.943565
v 0.055928 0.710167 -0.838917
v -0.055928 0.710167 -0.943565
v -0.055928 0.710167 -0.838917
v -0.055928 0.520141 -0.838916
v 0.055928 0.520141 -0.838916
v 0.055928 0.520141 -0.943565
v -0.055928 0.520141 -0.943565
v 0.055928 0.425784 -0.943565
v 0.055928 0.425784 -0.838916
v -0.055928 0.425784 -0.838916
v -0.055928 0.425784 -0.943565
v -0.055928 -0.636133 -0.838916
v 0.055928 -0.636133 -0.838916
v 0.055928 -0.636133 -0.943565
v -0.055928 -0.636133 -0.943565
v 0.055928 -0.715974 -0.943565
v 0.055928 -0.715974 -0.838916
v -0.055928 -0.715974 -0.838916
v -0.055928 -0.715974 -0.943565
v -0.055929 -0.715974 3.782161
v -0.055929 -0.715974 3.888464
v 0.055927 -0.715974 3.888464
v 0.055927 -0.715974 3.782161
v -0.055929 -0.636133 3.782161
v 0.055927 -0.636133 3.782161
v 0.055927 -0.636133 3.888464
v -0.055929 -0.636133 3.888464
v -0.055929 0.425784 3.782161
v -0.055929 0.425784 3.888464
v 0.055927 0.425784 3.888464
v 0.055927 0.425784 3.782161
v -0.055929 0.520141 3.782161
v 0.055927 0.520141 3.782161
v 0.055927 0.520141 3.888464
v -0.055929 0.520141 3.888464
v -0.055929 0.710167 3.888464
v -0.055929 0.710167 3.782161
v 0.055927 0.710167 3.888464
v 0.055927 0.710167 3.782161
v 0.055927 0.810540 3.782161
v -0.055929 0.810540 3.782161
v 0.055927 0.810540 3.888464
v -0.055929 0.810540 3.888464
v 0.055928 0.710167 2.776602
v 0.055928 0.810540 2.776602
v -0.055928 0.810540 2.776602
v -0.055928 0.710167 2.776602
v 0.055928 0.425784 2.776601
v 0.055928 0.520253 2.776601
v -0.055928 0.520253 2.776601
v -0.055928 0.425784 2.776601
v 0.055928 -0.715974 2.776601
v 0.055928 -0.636133 2.776601
v -0.055928 -0.636133 2.776601
v -0.055928 -0.715974 2.776601
v 0.055928 -0.715974 2.680291
v -0.055928 -0.715974 2.680291
v -0.055928 -0.636133 2.680291
v 0.055928 -0.636133 2.680291
v 0.055928 0.425784 2.680291
v -0.055928 0.425784 2.680291
v -0.055928 0.520253 2.680291
v 0.055928 0.520253 2.680291
v 0.055928 0.710167 2.680291
v -0.055928 0.710167 2.680291
v -0.055928 0.810540 2.680291
v 0.055928 0.810540 2.680291
v -0.055928 0.810540 1.670765
v 0.055927 0.810540 1.670765
v -0.055928 0.810540 1.564462
v 0.055927 0.810540 1.564462
v 0.055927 0.710167 1.564462
v 0.055927 0.710167 1.670765
v -0.055928 0.710167 1.564462
v -0.055928 0.710167 1.670765
v -0.055928 0.520141 1.670765
v 0.055927 0.520141 1.670765
v 0.055927 0.520141 1.564462
v -0.055928 0.520141 1.564462
v 0.055927 0.425784 1.564462
v 0.055927 0.425784 1.670765
v -0.055928 0.425784 1.670765
v -0.055928 0.425784 1.564462
v -0.055928 -0.636133 1.670765
v 0.055927 -0.636133 1.670765
v 0.055927 -0.636133 1.564462
v -0.055928 -0.636133 1.564462
v 0.055927 -0.715974 1.564462
v 0.055927 -0.715974 1.670765
v -0.055928 -0.715974 1.670765
v -0.055928 -0.715974 1.564462
vn 0.000000 -1.000000 -0.000000
vn 1.000000 -0.000000 0.000000
vn 0.000000 0.000000 1.000000
vn -1.000000 0.000000 -0.000000
vn 0.000000 0.000000 -1.000000
vn 0.000000 1.000000 0.000000
vn 0.000000 1.000000 0.000200
vn 0.000000 1.000000 -0.000100
vn 0.000000 1.000000 0.000100
usemtl floor_lino_grey_dark.005
s off
f 1//1 2//1 3//1 4//1
f 2//2 6//2 7//2 3//2
f 3//3 7//3 8//3 4//3
f 5//4 1//4 4//4 8//4
f 5//4 8//4 10//4 9//4
f 8//3 7//3 11//3 10//3
f 7//2 6//2 12//2 11//2
f 6//5 5//5 9//5 12//5
f 11//2 12//2 14//2 15//2
f 10//3 11//3 15//3 16//3
f 9//4 10//4 16//4 13//4
f 13//4 16//4 18//4 17//4
f 16//3 15//3 19//3 18//3
f 15//2 14//2 20//2 19//2
f 14//5 13//5 17//5 20//5
f 19//2 20//2 22//2 23//2
f 18//3 19//3 23//3 24//3
f 17//4 18//4 24//4 21//4
f 21//4 24//4 25//4 26//4
f 24//3 23//3 27//3 25//3
f 23//2 22//2 28//2 27//2
f 22//5 21//5 26//5 28//5
f 27//2 28//2 29//2 31//2
f 25//3 27//3 31//3 32//3
f 26//4 25//4 32//4 30//4
f 30//6 32//6 31//6 29//6
f 29//2 28//2 33//2 34//2
f 30//6 29//6 34//6 35//6
f 26//4 30//4 35//4 36//4
f 28//1 26//1 36//1 33//1
f 22//2 20//2 37//2 38//2
f 21//7 22//7 38//7 39//7
f 17//4 21//4 39//4 40//4
f 20//1 17//1 40//1 37//1
f 14//2 12//2 41//2 42//2
f 13//6 14//6 42//6 43//6
f 9//4 13//4 43//4 44//4
f 12//1 9//1 44//1 41//1
f 1//4 5//4 46//4 45//4
f 6//2 2//2 47//2 48//2
f 5//6 6//6 48//6 46//6
f 2//1 1//1 45//1 47//1
f 47//1 45//1 49//1 50//1
f 48//2 47//2 50//2 52//2
f 45//4 46//4 51//4 49//4
f 44//4 43//4 55//4 54//4
f 42//2 41//2 53//2 56//2
f 40//4 39//4 59//4 58//4
f 38//2 37//2 57//2 60//2
f 36//4 35//4 63//4 62//4
f 35//6 34//6 64//6 63//6
f 34//2 33//2 61//2 64//2
f 49//5 51//5 52//5 50//5
f 53//5 54//5 55//5 56//5
f 61//2 33//2 38//2 60//2
f 62//5 61//5 60//5 59//5
f 36//4 62//4 59//4 39//4
f 33//3 36//3 39//3 38//3
f 57//2 37//2 42//2 56//2
f 58//5 57//5 56//5 55//5
f 40//4 58//4 55//4 43//4
f 37//3 40//3 43//3 42//3
f 53//2 41//2 48//2 52//2
f 54//5 53//5 52//5 51//5
f 44//4 54//4 51//4 46//4
f 41//3 44//3 46//3 48//3
f 67//6 65//6 66//6 68//6
f 71//4 72//4 65//4 67//4
f 70//2 69//2 68//2 66//2
f 75//5 76//5 71//5 69//5
f 74//2 75//2 69//2 70//2
f 73//3 74//3 70//3 72//3
f 76//4 73//4 72//4 71//4
f 80//4 79//4 73//4 76//4
f 78//2 77//2 75//2 74//2
f 83//5 84//5 80//5 77//5
f 82//2 83//2 77//2 78//2
f 81//3 82//3 78//3 79//3
f 84//4 81//4 79//4 80//4
f 88//4 87//4 81//4 84//4
f 87//3 86//3 82//3 81//3
f 86//2 85//2 83//2 82//2
f 91//5 92//5 88//5 85//5
f 90//2 91//2 85//2 86//2
f 89//3 90//3 86//3 87//3
f 92//4 89//4 87//4 88//4
f 92//4 96//4 93//4 89//4
f 94//3 90//3 89//3 93//3
f 95//2 91//2 90//2 94//2
f 96//1 95//1 94//1 93//1
f 64//2 61//2 70//2 66//2
f 63//6 64//6 66//6 65//6
f 62//4 63//4 65//4 72//4
f 61//1 62//1 72//1 70//1
f 60//2 57//2 78//2 74//2
f 59//8 60//8 74//8 73//8
f 58//4 59//4 73//4 79//4
f 57//1 58//1 79//1 78//1
f 68//5 69//5 71//5 67//5
f 75//5 77//5 80//5 76//5
f 83//5 85//5 88//5 84//5
f 92//5 91//5 95//5 96//5
usemtl floor_lino_grey_dark.006
f 99//2 100//2 102//2 103//2
f 98//3 99//3 103//3 104//3
f 97//4 98//4 104//4 101//4
f 101//4 104//4 106//4 105//4
f 104//3 103//3 107//3 106//3
f 103//2 102//2 108//2 107//2
f 102//5 101//5 105//5 108//5
f 107//2 108//2 110//2 111//2
f 106//3 107//3 111//3 112//3
f 105//4 106//4 112//4 109//4
f 109//4 112//4 113//4 114//4
f 112//3 111//3 115//3 113//3
f 111//2 110//2 116//2 115//2
f 110//5 109//5 114//5 116//5
f 115//2 116//2 117//2 119//2
f 113//3 115//3 119//3 120//3
f 114//4 113//4 120//4 118//4
f 118//6 120//6 119//6 117//6
f 117//2 116//2 121//2 122//2
f 118//6 117//6 122//6 123//6
f 114//4 118//4 123//4 124//4
f 116//1 114//1 124//1 121//1
f 110//2 108//2 125//2 126//2
f 109//9 110//9 126//9 127//9
f 105//4 109//4 127//4 128//4
f 108//1 105//1 128//1 125//1
f 102//2 100//2 129//2 130//2
f 101//6 102//6 130//6 131//6
f 97//4 101//4 131//4 132//4
f 100//1 97//1 132//1 129//1
f 132//4 131//4 135//4 134//4
f 130//2 129//2 133//2 136//2
f 128//4 127//4 139//4 138//4
f 126//2 125//2 137//2 140//2
f 124//4 123//4 143//4 142//4
f 123//6 122//6 144//6 143//6
f 122//2 121//2 141//2 144//2
f 141//2 121//2 126//2 140//2
f 142//5 141//5 140//5 139//5
f 124//4 142//4 139//4 127//4
f 121//3 124//3 127//3 126//3
f 137//2 125//2 130//2 136//2
f 138//5 137//5 136//5 135//5
f 128//4 138//4 135//4 131//4
f 125//3 128//3 131//3 130//3
f 147//6 145//6 146//6 148//6
f 151//4 152//4 145//4 147//4
f 150//2 149//2 148//2 146//2
f 155//5 156//5 151//5 149//5
f 154//2 155//2 149//2 150//2
f 153//3 154//3 150//3 152//3
f 156//4 153//4 152//4 151//4
f 160//4 159//4 153//4 156//4
f 158//2 157//2 155//2 154//2
f 163//5 164//5 160//5 157//5
f 162//2 163//2 157//2 158//2
f 161//3 162//3 158//3 159//3
f 164//4 161//4 159//4 160//4
f 168//4 167//4 161//4 164//4
f 166//2 165//2 163//2 162//2
f 144//2 141//2 150//2 146//2
f 143//6 144//6 146//6 145//6
f 142//4 143//4 145//4 152//4
f 141//1 142//1 152//1 150//1
f 140//2 137//2 158//2 154//2
f 139//8 140//8 154//8 153//8
f 138//4 139//4 153//4 159//4
f 137//1 138//1 159//1 158//1
f 148//5 149//5 151//5 147//5
f 155//5 157//5 160//5 156//5
f 163//5 165//5 168//5 164//5
f 136//2 133//2 166//2 162//2
f 135//6 136//6 162//6 161//6
f 134//4 135//4 161//4 167//4
f 133//1 134//1 167//1 166//1
f 129//1 132//1 134//1 133//1
f 165//1 166//1 167//1 168//1
f 97//1 100//1 99//1 98//1
usemtl floor_lino_grey_dark.007
f 171//2 172//2 174//2 175//2
f 170//3 171//3 175//3 176//3
f 169//4 170//4 176//4 173//4
f 173//4 176//4 178//4 177//4
f 176//3 175//3 179//3 178//3
f 175//2 174//2 180//2 179//2
f 174//5 173//5 177//5 180//5
f 179//2 180//2 182//2 183//2
f 178//3 179//3 183//3 184//3
f 177//4 178//4 184//4 181//4
f 181//4 184//4 185//4 186//4
f 184//3 183//3 187//3 185//3
f 183//2 182//2 188//2 187//2
f 182//5 181//5 186//5 188//5
f 187//2 188//2 189//2 191//2
f 185//3 187//3 191//3 192//3
f 186//4 185//4 192//4 190//4
f 190//6 192//6 191//6 189//6
f 189//2 188//2 193//2 194//2
f 190//6 189//6 194//6 195//6
f 186//4 190//4 195//4 196//4
f 188//1 186//1 196//1 193//1
f 182//2 180//2 197//2 198//2
f 181//9 182//9 198//9 199//9
f 177//4 181//4 199//4 200//4
f 180//1 177//1 200//1 197//1
f 174//2 172//2 201//2 202//2
f 173//6 174//6 202//6 203//6
f 169//4 173//4 203//4 204//4
f 172//1 169//1 204//1 201//1
f 204//4 203//4 207//4 206//4
f 202//2 201//2 205//2 208//2
f 200//4 199//4 211//4 210//4
f 198//2 197//2 209//2 212//2
f 196//4 195//4 215//4 214//4
f 195//6 194//6 216//6 215//6
f 194//2 193//2 213//2 216//2
f 213//2 193//2 198//2 212//2
f 214//5 213//5 212//5 211//5
f 196//4 214//4 211//4 199//4
f 193//3 196//3 199//3 198//3
f 209//2 197//2 202//2 208//2
f 210//5 209//5 208//5 207//5
f 200//4 210//4 207//4 203//4
f 197//3 200//3 203//3 202//3
f 219//6 217//6 218//6 220//6
f 223//4 224//4 217//4 219//4
f 222//2 221//2 220//2 218//2
f 227//5 228//5 223//5 221//5
f 226//2 227//2 221//2 222//2
f 225//3 226//3 222//3 224//3
f 228//4 225//4 224//4 223//4
f 232//4 231//4 225//4 228//4
f 230//2 229//2 227//2 226//2
f 235//5 236//5 232//5 229//5
f 234//2 235//2 229//2 230//2
f 233//3 234//3 230//3 231//3
f 236//4 233//4 231//4 232//4
f 240//4 239//4 233//4 236//4
f 238//2 237//2 235//2 234//2
f 216//2 213//2 222//2 218//2
f 215//6 216//6 218//6 217//6
f 214//4 215//4 217//4 224//4
f 213//1 214//1 224//1 222//1
f 212//2 209//2 230//2 226//2
f 211//8 212//8 226//8 225//8
f 210//4 211//4 225//4 231//4
f 209//1 210//1 231//1 230//1
f 220//5 221//5 223//5 219//5
f 227//5 229//5 232//5 228//5
f 235//5 237//5 240//5 236//5
f 208//2 205//2 238//2 234//2
f 207//6 208//6 234//6 233//6
f 206//4 207//4 233//4 239//4
f 205//1 206//1 239//1 238//1
f 201//1 204//1 206//1 205//1
f 237//1 238//1 239//1 240//1
f 169//1 172//1 171//1 170//1
