# Blender v3.0.0 OBJ File: ''
# www.blender.org
mtllib small_box.mtl
o small_box
v -0.275199 0.275199 -0.275199
v -0.275199 0.275199 0.275199
v 0.275199 0.275199 0.275199
v 0.275199 0.275199 -0.275199
v 0.275199 -0.275199 0.275199
v 0.275199 -0.275199 -0.275199
v -0.275199 -0.275199 0.275199
v -0.275199 -0.275199 -0.275199
v -0.241038 -0.241038 0.275199
v -0.241038 0.241038 0.275199
v 0.241038 -0.241038 0.275199
v 0.241038 -0.241038 -0.222954
v -0.241038 -0.241038 -0.222954
v 0.241038 0.241038 0.275199
v 0.241038 0.241038 -0.222954
v -0.241038 0.241038 -0.222954
vn 0.0000 1.0000 0.0000
vn 1.0000 0.0000 0.0000
vn 0.0000 -1.0000 0.0000
vn -1.0000 0.0000 0.0000
vn 0.0000 0.0000 -1.0000
vn -0.0000 0.0000 1.0000
usemtl None
s off
f 1//1 2//1 3//1
f 1//1 3//1 4//1
f 4//2 3//2 5//2
f 4//2 5//2 6//2
f 6//3 5//3 7//3
f 6//3 7//3 8//3
f 8//4 7//4 2//4
f 8//4 2//4 1//4
f 4//5 6//5 8//5
f 4//5 8//5 1//5
f 2//6 7//6 9//6
f 2//6 9//6 10//6
f 9//1 11//1 12//1
f 9//1 12//1 13//1
f 5//6 3//6 14//6
f 5//6 14//6 11//6
f 7//6 5//6 11//6
f 7//6 11//6 9//6
f 3//6 2//6 10//6
f 3//6 10//6 14//6
f 12//6 15//6 16//6
f 12//6 16//6 13//6
f 14//3 10//3 16//3
f 14//3 16//3 15//3
f 10//2 9//2 13//2
f 10//2 13//2 16//2
f 11//4 14//4 15//4
f 11//4 15//4 12//4
