# Blender v3.0.1 OBJ File: ''
# www.blender.org
o Plane.001
v -10.902930 0.087484 0.000000
v -10.902930 -11.487603 0.000000
v 28.406631 -11.487603 0.000000
v 28.406631 0.087484 0.000000
v -10.874078 0.029381 -0.113000
v 28.435484 0.029381 -0.113000
v 28.435484 -11.545707 -0.113000
v -10.874078 -11.545707 -0.113000
vt 0.000000 0.000000
vt 1.000000 0.000000
vt 1.000000 1.000000
vt 0.000000 1.000000
vt 0.000000 0.000000
vt 0.000000 1.000000
vt 1.000000 1.000000
vt 1.000000 0.000000
vn 0.0000 0.0000 1.0000
vn 0.0000 0.0000 -1.0000
vn -0.9689 0.0000 -0.2474
vn 0.0000 -0.8893 0.4573
vn 0.0000 0.8893 -0.4573
vn 0.9689 0.0000 0.2474
s 1
f 1/1/1 2/2/1 3/3/1 4/4/1
f 5/5/2 6/6/2 7/7/2 8/8/2
f 1/1/3 5/5/3 8/8/3 2/2/3
f 2/2/4 8/8/4 7/7/4 3/3/4
f 4/4/5 6/6/5 5/5/5 1/1/5
f 3/3/6 7/7/6 6/6/6 4/4/6
