# Blender v3.0.1 OBJ File: ''
# www.blender.org
mtllib floor.mtl
o Floor_h002_Plane.001
v 18.481470 0.139786 0.001148
v -0.028614 0.077744 0.001148
v -0.036055 -5.078793 0.001148
v 18.438572 -5.059839 0.001148
v 18.460022 -3.999135 0.001148
v -6.318825 -5.116703 0.001148
v -6.318825 -9.477926 0.001148
v -6.318825 -11.560575 0.001148
v -0.036055 -11.560575 0.001148
v 18.438400 -11.566381 0.001148
v -6.308933 0.025624 0.001148
v -11.001713 0.025624 0.001148
v -11.011604 -5.116703 0.001148
v -11.011604 -9.477926 0.001148
v 28.365124 -11.560061 0.001073
v 28.413568 -3.998120 0.000998
v 23.774828 -3.983917 0.000998
v 20.990789 -3.977557 0.001030
v -6.308933 0.216397 0.001148
v -11.001713 0.216397 0.001148
v 17.017204 0.137175 -0.000090
v 17.212097 5.006742 -0.000090
v 15.799653 7.012471 -0.000090
v 15.419448 0.131260 -0.000090
v 14.291501 4.367491 -0.000463
v 14.685250 8.690167 -0.000835
v 13.898143 0.128013 -0.000090
v 18.508795 2.955492 0.000131
v 18.481512 0.140226 0.000131
v 20.373043 0.141605 0.000913
v 17.778988 5.648990 -0.000090
v 18.847363 4.047925 0.000131
v 20.358536 5.058251 0.000131
v 19.200665 6.638192 -0.000076
v 12.465034 6.546622 -0.000835
v 10.581864 0.118221 -0.000090
v 10.610213 6.563351 -0.000835
v 10.451835 6.562845 -0.000835
v 8.351780 6.562339 -0.000835
v 10.504446 0.119361 -0.000090
v 10.386735 10.393372 -0.002564
v 8.264833 8.850138 -0.000835
v 20.979050 0.157377 0.000913
v 21.439310 0.173148 0.000913
v 17.446983 6.107055 -0.000567
v 15.415935 9.190524 -0.000835
v 10.592357 0.118036 -0.000090
v 12.499053 8.657428 0.001148
v 13.789079 9.902904 0.001148
v 12.382842 11.819832 0.001148
v 10.931210 10.787126 0.001148
v 12.383104 11.820013 0.001148
v 8.759377 16.707867 0.001148
v 8.298878 6.541810 -0.000835
v 8.287123 0.134444 -0.000090
v 17.778893 8.590514 -0.000540
v 16.684608 10.063769 -0.000831
v 15.135777 13.764265 0.001148
v 11.512050 18.652119 0.001148
v 2.516083 12.120676 0.001148
v 6.089125 7.184626 -0.000835
v 23.838219 0.268829 0.000966
v 28.434128 0.255049 0.000966
v 14.685558 8.691267 0.001148
v 17.499994 10.625291 0.001148
v 18.508795 2.955492 -0.018305
v 10.610213 6.563351 -0.017339
v 12.465034 6.546622 -0.017339
v 18.481512 0.140226 0.000131
v 20.373043 0.141605 0.000913
v 18.481470 0.139786 0.001148
v 18.438572 -5.059839 0.001148
vt 0.612595 0.747680
vt 0.614792 0.278411
vt 0.785443 0.278253
vt 0.784672 0.746623
vt 0.749569 0.747161
vt 0.786746 0.118972
vt 0.931077 0.118998
vt 1.000000 0.119010
vt 0.999951 0.278291
vt 1.000000 0.746658
vt 0.616565 0.119192
vt 0.616602 0.000220
vt 0.786782 0.000000
vt 0.931113 0.000026
vt 0.999714 0.998321
vt 0.749458 0.999504
vt 0.749024 0.881902
vt 0.748835 0.811321
vt 0.610252 0.119191
vt 0.610288 0.000219
vt 0.612693 0.710558
vt 0.451537 0.715470
vt 0.385170 0.679649
vt 0.612901 0.670051
vt 0.472715 0.641430
vt 0.329657 0.651387
vt 0.613020 0.631483
vt 0.519411 0.748356
vt 0.612580 0.747681
vt 0.612520 0.795635
vt 0.430278 0.729838
vt 0.483256 0.756933
vt 0.449808 0.795238
vt 0.397530 0.765874
vt 0.400613 0.595113
vt 0.613370 0.547409
vt 0.400074 0.548089
vt 0.400092 0.544074
vt 0.400125 0.490833
vt 0.613333 0.545446
vt 0.273324 0.542400
vt 0.324413 0.488615
vt 0.611993 0.810999
vt 0.611468 0.822667
vt 0.415121 0.721418
vt 0.313093 0.669908
vt 0.613376 0.547675
vt 0.330758 0.595963
vt 0.289530 0.628660
vt 0.226102 0.592998
vt 0.260289 0.556202
vt 0.226096 0.593004
vt 0.064365 0.501106
vt 0.400805 0.489492
vt 0.612851 0.489232
vt 0.332931 0.729818
vt 0.284183 0.702067
vt 0.161731 0.662779
vt 0.000000 0.570880
vt 0.216222 0.342853
vt 0.379548 0.433466
vt 0.608283 0.883484
vt 0.608703 1.000000
vt 0.329621 0.651395
vt 0.265594 0.722735
vn 0.0000 0.0001 1.0000
vn -0.0000 0.0000 1.0000
vn -0.0001 0.0000 1.0000
vn -0.0000 0.0002 1.0000
vn -0.0002 0.0001 1.0000
vn -0.0004 0.0001 1.0000
vn -0.0002 0.0000 1.0000
vn -0.0001 0.0001 1.0000
vn 0.0001 -0.0003 1.0000
vn -0.0010 -0.0005 1.0000
vn 0.0001 0.0002 1.0000
vn 0.0001 0.0015 1.0000
vn 0.0004 -0.0000 1.0000
vn -0.0000 0.0003 1.0000
vn -0.0002 -0.0006 1.0000
vn 0.0004 -0.0004 1.0000
vn 0.0002 0.0001 1.0000
vn -0.0024 -0.0012 1.0000
vn 0.0002 -0.0003 1.0000
usemtl floor_grey.001
s 1
f 1/1/1 2/2/2 3/3/2 4/4/2 5/5/2
f 3/3/2 6/6/2 7/7/2 8/8/2 9/9/2
f 4/4/2 3/3/2 9/9/2 10/10/2
f 6/6/2 11/11/2 12/12/2 13/13/2
f 7/7/2 6/6/2 13/13/2 14/14/2
f 3/3/2 2/2/2 11/11/2 6/6/2
f 4/4/2 10/10/2 15/15/2 16/16/2 17/17/2 18/18/2 5/5/2
f 12/12/2 11/11/2 19/19/2 20/20/2
f 21/21/3 22/22/1 23/23/4 24/24/2
f 25/25/5 24/24/2 23/23/4
f 26/26/6 25/25/5 23/23/4
f 25/25/5 27/27/1 24/24/2
f 28/28/5 22/22/1 21/21/3 29/29/7
f 30/30/8 28/28/5 29/29/7
f 31/31/4 32/32/8 33/33/8 34/34/5
f 25/25/5 26/26/6 35/35/9
f 36/36/1 37/37/10 38/38/11 39/39/11 40/40/1
f 39/39/11 38/38/11 41/41/12 42/42/13
f 22/22/1 28/28/5 32/32/8 31/31/4
f 28/28/5 30/30/8 43/43/1 44/44/1 32/32/8
f 26/26/6 23/23/4 45/45/14 46/46/11
f 23/23/4 22/22/1 31/31/4 45/45/14
f 25/25/5 35/35/9 47/47/1
f 27/27/1 25/25/5 47/47/1
f 47/47/1 35/35/9 37/37/10 36/36/1
f 43/43/1 30/30/8 29/29/7 1/1/1 5/5/2 18/18/2
f 48/48/15 37/37/10 35/35/9
f 35/35/9 26/26/6 49/49/16 48/48/15
f 48/48/15 49/49/16 50/50/2 51/51/17
f 51/51/17 50/50/2 52/52/2 53/53/18
f 37/37/10 41/41/12 38/38/11
f 40/40/1 39/39/11 54/54/1 55/55/1
f 46/46/11 45/45/14 56/56/5 57/57/3
f 51/51/17 41/41/12 37/37/10 48/48/15
f 51/51/17 53/53/18 41/41/12
f 52/52/2 58/58/2 59/59/2 53/53/18
f 53/53/18 42/42/13 41/41/12
f 42/42/13 53/53/18 60/60/19 61/61/19
f 45/45/14 31/31/4 34/34/5 56/56/5
f 32/32/8 44/44/1 62/62/2 33/33/8
f 62/62/2 44/44/1 43/43/1 18/18/2 17/17/2
f 62/62/2 17/17/2 16/16/2 63/63/2
f 58/58/2 52/52/2 64/64/2 65/65/2
l 66 28
l 35 67
l 48 68
l 29 69
l 70 30
l 4 72
l 71 1
