# Blender v3.0.1 OBJ File: ''
# www.blender.org
mtllib frame.mtl
o Cube
v 0.100000 0.100000 0.100000
v 0.100000 0.100000 -0.100000
v 0.100000 -0.100000 0.100000
v 0.100000 -0.100000 -0.100000
v -0.100000 0.100000 0.100000
v -0.100000 0.100000 -0.100000
v -0.100000 -0.100000 0.100000
v -0.100000 -0.100000 -0.100000
v 1.000000 0.100000 0.100000
v 1.000000 0.100000 -0.100000
v 1.000000 -0.100000 0.100000
v 1.000000 -0.100000 -0.100000
v 0.100000 1.000000 -0.100000
v -0.100000 1.000000 -0.100000
v 0.100000 1.000000 0.100000
v -0.100000 1.000000 0.100000
v 0.100000 -0.100000 1.000000
v -0.100000 -0.100000 1.000000
v 0.100000 0.100000 1.000000
v -0.100000 0.100000 1.000000
vt 0.359467 0.089547
vt 0.436586 0.089547
vt 0.436586 0.436586
vt 0.359467 0.436586
vt 0.461440 0.359467
vt 0.538560 0.359467
vt 0.538560 0.436586
vt 0.461440 0.436586
vt 0.436586 0.012427
vt 0.359467 0.012427
vt 0.012427 0.808479
vt 0.089547 0.808479
vt 0.089547 0.885599
vt 0.012427 0.885599
vt 0.844482 0.808479
vt 0.767362 0.808479
vt 0.767362 0.461440
vt 0.844482 0.461440
vt 0.869336 0.461440
vt 0.946456 0.461440
vt 0.946456 0.808479
vt 0.869336 0.808479
vt 0.538560 0.833333
vt 0.538560 0.910453
vt 0.461440 0.910453
vt 0.461440 0.833333
vt 0.436586 0.808479
vt 0.436586 0.885599
vt 0.987573 0.359467
vt 0.910453 0.359467
vt 0.910453 0.012427
vt 0.987573 0.012427
vt 0.461440 0.012427
vt 0.538560 0.012427
vt 0.640534 0.833333
vt 0.640534 0.910453
vt 0.563414 0.910453
vt 0.563414 0.833333
vt 0.012427 0.089547
vt 0.012427 0.012427
vt 0.012427 0.461440
vt 0.089547 0.461440
vt 0.538560 0.808479
vt 0.461440 0.808479
vt 0.461440 0.461440
vt 0.538560 0.461440
vt 0.665388 0.833333
vt 0.742508 0.833333
vt 0.742508 0.910453
vt 0.665388 0.910453
vt 0.563414 0.461440
vt 0.640534 0.461440
vt 0.640534 0.808479
vt 0.563414 0.808479
vt 0.665388 0.461440
vt 0.742508 0.461440
vt 0.742508 0.808479
vt 0.665388 0.808479
vt 0.885599 0.359467
vt 0.885599 0.436586
vn -1.0000 0.0000 0.0000
vn 0.0000 -1.0000 0.0000
vn 0.0000 0.0000 -1.0000
vn 0.0000 1.0000 0.0000
vn 1.0000 0.0000 0.0000
vn 0.0000 0.0000 1.0000
usemtl MaterialFrame
s off
f 5/1/1 7/2/1 18/3/1 20/4/1
f 4/5/2 3/6/2 7/7/2 8/8/2
f 8/9/1 7/2/1 5/1/1 6/10/1
f 6/11/3 2/12/3 4/13/3 8/14/3
f 2/15/4 1/16/4 9/17/4 10/18/4
f 1/19/5 2/20/5 13/21/5 15/22/5
f 10/23/5 9/24/5 11/25/5 12/26/5
f 4/13/3 2/12/3 10/27/3 12/28/3
f 1/29/6 3/30/6 11/31/6 9/32/6
f 3/6/2 4/5/2 12/33/2 11/34/2
f 14/35/4 16/36/4 15/37/4 13/38/4
f 6/10/1 5/1/1 16/39/1 14/40/1
f 2/12/3 6/11/3 14/41/3 13/42/3
f 5/43/6 1/44/6 15/45/6 16/46/6
f 19/47/6 20/48/6 18/49/6 17/50/6
f 3/51/5 1/52/5 19/53/5 17/54/5
f 1/55/4 5/56/4 20/57/4 19/58/4
f 7/7/2 3/6/2 17/59/2 18/60/2
