# Blender v3.2.1 OBJ File: ''
# www.blender.org
mtllib steve_body.mtl
o body_Cube.001
v 0.125000 -0.250000 1.130842
v 0.125000 -0.500000 1.130842
v 0.094123 -0.500000 0.610969
v 0.094123 -0.250000 0.610969
v -0.125000 0.000000 1.130842
v -0.125000 0.000000 1.380436
v -0.125000 0.250000 1.380436
v -0.125000 0.250000 1.130842
v -0.125000 0.500000 1.380436
v -0.125000 0.500000 1.130842
v 0.125000 0.000000 1.130842
v 0.125000 0.000000 1.380436
v 0.125000 -0.250000 1.380436
v -0.125000 0.250000 0.755436
v 0.125000 0.250000 0.755436
v 0.131494 0.252598 0.000436
v -0.118506 0.252598 0.000436
v -0.125000 -0.250000 1.380436
v -0.125000 0.000000 0.755436
v 0.125000 0.000000 0.755436
v 0.122402 -0.001299 0.000436
v -0.127598 -0.001299 0.000436
v 0.131494 0.002598 0.000436
v -0.118506 0.002598 0.000436
v 0.122402 -0.251299 0.000436
v -0.127598 -0.251299 0.000436
v 0.125000 -0.250000 0.755436
v -0.125000 -0.250000 0.755436
v 0.125000 0.250000 1.380436
v 0.125000 0.250000 1.130842
v -0.125000 -0.250000 1.130842
v 0.125000 0.500000 1.380436
v 0.125000 0.500000 1.130842
v 0.190610 0.500000 0.649086
v -0.056713 0.500000 0.612598
v 0.125000 -0.500000 1.380436
v -0.125000 -0.500000 1.380436
v -0.125000 -0.500000 1.130842
v -0.152697 -0.250000 0.650714
v -0.152697 -0.500000 0.650714
v 0.190610 0.250000 0.649086
v -0.056713 0.250000 0.612598
vt 0.749206 0.624760
vt 0.686821 0.624760
vt 0.686821 0.499990
vt 0.749206 0.499990
vt 0.546726 0.612926
vt 0.546726 0.687495
vt 0.472036 0.687495
vt 0.472036 0.612926
vt 0.749897 0.124919
vt 0.749897 0.187247
vt 0.687467 0.187247
vt 0.687467 0.124919
vt 0.375005 0.612581
vt 0.375005 0.687499
vt 0.299965 0.687499
vt 0.299965 0.612581
vt 0.188566 0.687413
vt 0.126243 0.687008
vt 0.125635 0.499992
vt 0.187959 0.500396
vt 0.375024 0.749872
vt 0.312782 0.749872
vt 0.312782 0.687629
vt 0.375024 0.687629
vt 0.437542 0.187502
vt 0.375210 0.187761
vt 0.375210 0.000094
vt 0.437542 -0.000165
vt 0.123948 0.687010
vt 0.061624 0.687010
vt 0.062271 0.500000
vt 0.124596 0.500000
vt 0.125278 0.749741
vt 0.125278 0.687796
vt 0.187224 0.687796
vt 0.187224 0.749741
vt 0.437778 0.250404
vt 0.374651 0.250404
vt 0.374651 0.187277
vt 0.437778 0.187277
vt 0.312860 0.187680
vt 0.250528 0.187518
vt 0.250285 -0.000149
vt 0.312617 0.000013
vt 0.062346 0.686930
vt 0.000025 0.687020
vt 0.000025 0.500002
vt 0.437267 0.749872
vt 0.437267 0.687629
vt 0.499700 0.187523
vt 0.437368 0.187523
vt 0.437692 -0.000143
vt 0.500024 -0.000143
vt 0.450045 0.612581
vt 0.450045 0.687499
vt 0.621415 0.612926
vt 0.621415 0.687495
vt 0.250815 0.687010
vt 0.188490 0.687010
vt 0.187843 0.500000
vt 0.250167 0.500000
vt 0.374593 0.187519
vt 0.312261 0.187519
vt 0.311937 -0.000147
vt 0.374269 -0.000147
vt 0.621415 0.500771
vt 0.546726 0.500770
vt 0.450045 0.499899
vt 0.375005 0.499899
vt 0.299965 0.499899
vt 0.000000 0.721742
vt 0.001082 0.555050
vt 0.112089 0.555771
vt 0.111007 0.722462
vt 0.472036 0.500770
vt 0.888078 0.166694
vt 0.888511 0.000000
vt 0.999520 0.000288
vt 0.999088 0.166982
vt 0.687461 0.187263
vt 0.625031 0.187263
vt 0.625031 0.124934
vt 0.625031 0.000074
vt 0.687461 0.000074
vt 0.499709 0.749735
vt 0.499709 0.687830
vt 0.561615 0.687830
vt 0.561615 0.749735
vt 0.562292 0.187247
vt 0.562292 0.124919
vt 0.624722 0.124919
vt 0.624722 0.187247
vt 0.687483 0.624802
vt 0.687483 0.687085
vt 0.625098 0.687085
vt 0.625098 0.624802
vt 0.749206 0.687043
vt 0.686821 0.687043
vt 0.812789 0.687188
vt 0.812789 0.624904
vt 0.875174 0.624904
vt 0.875174 0.687188
vt 0.499669 0.687830
vt 0.499669 0.749735
vt 0.437763 0.749735
vt 0.437763 0.687830
vt 0.812567 0.687584
vt 0.812567 0.750097
vt 0.750054 0.750097
vt 0.750054 0.687584
vt 0.624919 0.250145
vt 0.624919 0.187533
vt 0.687530 0.187533
vt 0.687530 0.250145
vt 0.812118 0.624926
vt 0.749733 0.624926
vt 0.749733 0.500156
vt 0.812118 0.500156
vt 0.562220 0.124902
vt 0.499790 0.124902
vt 0.499790 0.000042
vt 0.562220 0.000042
vt 0.562292 0.000058
vt 0.624722 0.000058
vt 0.812789 0.500134
vt 0.875174 0.500134
vt 0.625098 0.500032
vt 0.687483 0.500032
vt 0.749897 0.000058
vn 0.9982 0.0000 -0.0593
vn -1.0000 0.0000 0.0000
vn 1.0000 0.0000 0.0000
vn 0.0000 1.0000 0.0017
vn 0.0000 1.0000 0.0034
vn 0.0000 0.0000 1.0000
vn 0.0000 1.0000 -0.0017
vn 1.0000 0.0000 0.0043
vn 1.0000 0.0000 0.0013
vn 1.0000 0.0000 0.0086
vn 0.0000 0.0000 -1.0000
vn 0.0000 -1.0000 0.0009
vn 0.0000 -1.0000 0.0017
vn 0.0000 -1.0000 -0.0034
vn -1.0000 0.0000 0.0017
vn -1.0000 0.0000 -0.0013
vn -1.0000 0.0000 0.0034
vn -1.0000 0.0000 -0.0043
vn -1.0000 0.0000 -0.0086
vn 1.0000 0.0000 -0.0017
vn 1.0000 0.0000 -0.0034
vn 0.0000 1.0000 0.0000
vn 0.0000 -1.0000 0.0000
vn -0.1590 0.0000 -0.9873
vn 0.1460 0.0000 -0.9893
vn 0.9909 0.0000 0.1349
vn -0.9983 0.0000 0.0576
vn -0.9914 0.0000 -0.1306
usemtl piinson_skin.003
s 1
f 1/1/1 2/2/1 3/3/1 4/4/1
f 5/5/2 6/6/2 7/7/2 8/8/2
f 8/9/2 7/10/2 9/11/2 10/12/2
f 11/13/3 12/14/3 13/15/3 1/16/3
f 14/17/4 15/18/4 16/19/5 17/20/5
f 6/21/6 18/22/6 13/23/6 12/24/6
f 19/25/7 20/26/7 21/27/7 22/28/7
f 15/29/8 20/30/9 23/31/10 16/32/10
f 16/33/11 23/34/11 24/35/11 17/36/11
f 21/37/11 25/38/11 26/39/11 22/40/11
f 27/41/12 28/42/12 26/43/13 25/44/13
f 20/45/14 19/46/14 24/47/14 23/31/14
f 7/48/6 6/21/6 12/24/6 29/49/6
f 28/50/15 19/51/16 22/52/17 26/53/17
f 30/54/3 29/55/3 12/14/3 11/13/3
f 31/56/2 18/57/2 6/6/2 5/5/2
f 19/58/16 14/59/18 17/60/19 24/61/19
f 20/62/9 27/63/20 25/64/21 21/65/21
f 28/66/15 31/56/2 5/5/2 19/67/16
f 15/68/8 30/54/3 11/13/3 20/69/9
f 20/69/9 11/13/3 1/16/3 27/70/20
f 14/71/4 8/72/22 30/73/22 15/74/4
f 19/67/16 5/5/2 8/8/2 14/75/18
f 27/76/12 1/77/23 31/78/23 28/79/12
f 10/12/22 9/80/22 32/81/22 33/82/22
f 10/12/22 33/82/22 34/83/22 35/84/22
f 7/85/6 29/86/6 32/87/6 9/88/6
f 29/89/3 30/90/3 33/91/3 32/92/3
f 2/93/23 36/94/23 37/95/23 38/96/23
f 1/1/3 13/97/3 36/98/3 2/2/3
f 18/99/2 31/100/2 38/101/2 37/102/2
f 13/103/6 18/104/6 37/105/6 36/106/6
f 39/107/24 4/108/24 3/109/24 40/110/24
f 41/111/25 42/112/25 35/113/25 34/114/25
f 31/115/22 1/116/22 4/117/22 39/118/22
f 30/119/23 8/120/23 42/121/23 41/122/23
f 33/91/26 30/90/26 41/123/26 34/124/26
f 38/101/27 31/100/27 39/125/27 40/126/27
f 2/93/23 38/96/23 40/127/23 3/128/23
f 8/9/28 10/12/28 35/84/28 42/129/28
